{
	"asset":{
		"generator":"Khronos glTF Blender I/O v4.3.47",
		"version":"2.0"
	},
	"scene":0,
	"scenes":[
		{
			"name":"Scene",
			"nodes":[
				8
			]
		}
	],
	"nodes":[
		{
			"mesh":0,
			"name":"Cube.001",
			"scale":[
				-0.17230455577373505,
				-0.25750744342803955,
				-0.04994421824812889
			],
			"translation":[
				0.7696253061294556,
				0.4848364591598511,
				0.9954073429107666
			]
		},
		{
			"mesh":0,
			"name":"Cube.002",
			"scale":[
				-0.17230455577373505,
				-0.25750744342803955,
				-0.04994421824812889
			],
			"translation":[
				-0.7574532628059387,
				0.4848364591598511,
				0.9954073429107666
			]
		},
		{
			"mesh":1,
			"name":"Cube.003",
			"scale":[
				-0.17230455577373505,
				-0.25750744342803955,
				-0.04994421824812889
			],
			"translation":[
				0.7696253061294556,
				0.4848364591598511,
				-0.9608957171440125
			]
		},
		{
			"mesh":1,
			"name":"Cube.004",
			"scale":[
				-0.17230455577373505,
				-0.25750744342803955,
				-0.04994421824812889
			],
			"translation":[
				-0.7665194272994995,
				0.4848364591598511,
				-0.9608957171440125
			]
		},
		{
			"mesh":2,
			"name":"Cylinder",
			"rotation":[
				0,
				0,
				-0.7071067094802856,
				0.7071068286895752
			],
			"scale":[
				1.1380126476287842,
				0.4058058559894562,
				0.22072044014930725
			],
			"translation":[
				0.7240040302276611,
				-0.3580978214740753,
				0.7080820798873901
			]
		},
		{
			"mesh":2,
			"name":"Cylinder.001",
			"rotation":[
				0,
				0,
				-0.7071067094802856,
				0.7071068286895752
			],
			"scale":[
				1.1380126476287842,
				0.4058058559894562,
				0.22072044014930725
			],
			"translation":[
				0.7240040302276611,
				-0.3580978214740753,
				-0.7117448449134827
			]
		},
		{
			"mesh":2,
			"name":"Cylinder.002",
			"rotation":[
				0,
				0,
				0.7071068286895752,
				0.7071068286895752
			],
			"scale":[
				1.1380126476287842,
				0.4058058559894562,
				0.22072044014930725
			],
			"translation":[
				-0.7237346768379211,
				-0.34944066405296326,
				0.7080820202827454
			]
		},
		{
			"mesh":2,
			"name":"Cylinder.003",
			"rotation":[
				0,
				0,
				0.7071068286895752,
				0.7071068286895752
			],
			"scale":[
				1.1380126476287842,
				0.4058058559894562,
				0.22072044014930725
			],
			"translation":[
				-0.7237346768379211,
				-0.34944066405296326,
				-0.7117448449134827
			]
		},
		{
			"children":[
				0,
				1,
				2,
				3,
				4,
				5,
				6,
				7
			],
			"mesh":3,
			"name":"CAR",
			"scale":[
				2.18524169921875,
				0.7792389988899231,
				4.017678737640381
			]
		}
	],
	"materials":[
		{
			"doubleSided":true,
			"name":"Car",
			"pbrMetallicRoughness":{
				"baseColorTexture":{
					"index":0
				},
				"metallicFactor":0,
				"roughnessFactor":0.5
			}
		}
	],
	"meshes":[
		{
			"name":"Cube.002",
			"primitives":[
				{
					"attributes":{
						"POSITION":0,
						"NORMAL":1,
						"TEXCOORD_0":2
					},
					"indices":3,
					"material":0
				}
			]
		},
		{
			"name":"Cube.003",
			"primitives":[
				{
					"attributes":{
						"POSITION":4,
						"NORMAL":5,
						"TEXCOORD_0":6
					},
					"indices":3,
					"material":0
				}
			]
		},
		{
			"name":"Cylinder.001",
			"primitives":[
				{
					"attributes":{
						"POSITION":7,
						"NORMAL":8,
						"TEXCOORD_0":9
					},
					"indices":10,
					"material":0
				}
			]
		},
		{
			"name":"Cube.001",
			"primitives":[
				{
					"attributes":{
						"POSITION":11,
						"NORMAL":12,
						"TEXCOORD_0":13
					},
					"indices":14,
					"material":0
				}
			]
		}
	],
	"textures":[
		{
			"sampler":0,
			"source":0
		}
	],
	"images":[
		{
			"mimeType":"image/png",
			"name":"palette",
			"uri":"palette.png"
		}
	],
	"accessors":[
		{
			"bufferView":0,
			"componentType":5126,
			"count":24,
			"max":[
				1,
				1,
				1
			],
			"min":[
				-1,
				-1,
				-1
			],
			"type":"VEC3"
		},
		{
			"bufferView":1,
			"componentType":5126,
			"count":24,
			"type":"VEC3"
		},
		{
			"bufferView":2,
			"componentType":5126,
			"count":24,
			"type":"VEC2"
		},
		{
			"bufferView":3,
			"componentType":5123,
			"count":36,
			"type":"SCALAR"
		},
		{
			"bufferView":4,
			"componentType":5126,
			"count":24,
			"max":[
				1,
				1,
				1
			],
			"min":[
				-1,
				-1,
				-1
			],
			"type":"VEC3"
		},
		{
			"bufferView":5,
			"componentType":5126,
			"count":24,
			"type":"VEC3"
		},
		{
			"bufferView":6,
			"componentType":5126,
			"count":24,
			"type":"VEC2"
		},
		{
			"bufferView":7,
			"componentType":5126,
			"count":160,
			"max":[
				0.9510565400123596,
				1,
				1
			],
			"min":[
				-0.9510565400123596,
				-1,
				-1
			],
			"type":"VEC3"
		},
		{
			"bufferView":8,
			"componentType":5126,
			"count":160,
			"type":"VEC3"
		},
		{
			"bufferView":9,
			"componentType":5126,
			"count":160,
			"type":"VEC2"
		},
		{
			"bufferView":10,
			"componentType":5123,
			"count":288,
			"type":"SCALAR"
		},
		{
			"bufferView":11,
			"componentType":5126,
			"count":832,
			"max":[
				1,
				3.6573891639709473,
				1.0415301322937012
			],
			"min":[
				-1,
				-1,
				-1
			],
			"type":"VEC3"
		},
		{
			"bufferView":12,
			"componentType":5126,
			"count":832,
			"type":"VEC3"
		},
		{
			"bufferView":13,
			"componentType":5126,
			"count":832,
			"type":"VEC2"
		},
		{
			"bufferView":14,
			"componentType":5123,
			"count":1416,
			"type":"SCALAR"
		}
	],
	"bufferViews":[
		{
			"buffer":0,
			"byteLength":288,
			"byteOffset":0,
			"target":34962
		},
		{
			"buffer":0,
			"byteLength":288,
			"byteOffset":288,
			"target":34962
		},
		{
			"buffer":0,
			"byteLength":192,
			"byteOffset":576,
			"target":34962
		},
		{
			"buffer":0,
			"byteLength":72,
			"byteOffset":768,
			"target":34963
		},
		{
			"buffer":0,
			"byteLength":288,
			"byteOffset":840,
			"target":34962
		},
		{
			"buffer":0,
			"byteLength":288,
			"byteOffset":1128,
			"target":34962
		},
		{
			"buffer":0,
			"byteLength":192,
			"byteOffset":1416,
			"target":34962
		},
		{
			"buffer":0,
			"byteLength":1920,
			"byteOffset":1608,
			"target":34962
		},
		{
			"buffer":0,
			"byteLength":1920,
			"byteOffset":3528,
			"target":34962
		},
		{
			"buffer":0,
			"byteLength":1280,
			"byteOffset":5448,
			"target":34962
		},
		{
			"buffer":0,
			"byteLength":576,
			"byteOffset":6728,
			"target":34963
		},
		{
			"buffer":0,
			"byteLength":9984,
			"byteOffset":7304,
			"target":34962
		},
		{
			"buffer":0,
			"byteLength":9984,
			"byteOffset":17288,
			"target":34962
		},
		{
			"buffer":0,
			"byteLength":6656,
			"byteOffset":27272,
			"target":34962
		},
		{
			"buffer":0,
			"byteLength":2832,
			"byteOffset":33928,
			"target":34963
		}
	],
	"samplers":[
		{
			"magFilter":9729,
			"minFilter":9987
		}
	],
	"buffers":[
		{
			"byteLength":36760,
			"uri":"Car.bin"
		}
	]
}
