{
	"asset":{
		"generator":"Khronos glTF Blender I/O v4.3.47",
		"version":"2.0"
	},
	"scene":0,
	"scenes":[
		{
			"name":"Scene",
			"nodes":[
				10
			]
		}
	],
	"nodes":[
		{
			"name":"Bone.003",
			"rotation":[
				0.006210064049810171,
				4.3710542740882374e-08,
				1.2091437850969555e-09,
				0.9999806880950928
			],
			"scale":[
				0.9999999403953552,
				1,
				1
			],
			"translation":[
				1.5502564565395005e-08,
				0.838580846786499,
				1.6903243249544175e-09
			]
		},
		{
			"children":[
				0
			],
			"name":"Bone.002",
			"rotation":[
				5.3715574210855266e-08,
				-0.702701985836029,
				-0.7114843130111694,
				5.305251704612601e-08
			],
			"scale":[
				0.9999999403953552,
				0.9999999403953552,
				0.9999999403953552
			],
			"translation":[
				0.009146157652139664,
				1.5678215026855469,
				0.9000812768936157
			]
		},
		{
			"name":"Bone.006",
			"rotation":[
				0.0008324807276949286,
				-2.2204462186569025e-14,
				-1.9847333498912434e-10,
				0.9999996423721313
			],
			"scale":[
				0.9999999403953552,
				0.9999999403953552,
				1
			],
			"translation":[
				-1.9591084310377482e-08,
				0.8334554433822632,
				3.313536183213728e-07
			]
		},
		{
			"children":[
				2
			],
			"name":"Bone.005",
			"rotation":[
				-0.6982147693634033,
				-8.534055950804031e-08,
				8.323366529339182e-08,
				0.7158884406089783
			],
			"scale":[
				0.9999999403953552,
				0.9999999403953552,
				0.9999999403953552
			],
			"translation":[
				0.009146196767687798,
				1.5469913482666016,
				-0.8651372790336609
			]
		},
		{
			"name":"Bone.012",
			"rotation":[
				0.0016105077229440212,
				-9.193437290377915e-05,
				-0.021871358156204224,
				0.9997595548629761
			],
			"scale":[
				1,
				0.9999999403953552,
				1
			],
			"translation":[
				6.461050361394882e-08,
				1.8366228342056274,
				3.5710399970412254e-08
			]
		},
		{
			"children":[
				4
			],
			"name":"Bone.010",
			"rotation":[
				0.9998716711997986,
				-0.01142337266355753,
				5.395121479523368e-05,
				0.011235113255679607
			],
			"scale":[
				0.9999998211860657,
				1,
				0.9999999403953552
			],
			"translation":[
				0.0091461893171072,
				0.1618049144744873,
				0.43672996759414673
			]
		},
		{
			"name":"Bone.013",
			"rotation":[
				-0.007309208624064922,
				-1.045440058078384e-05,
				-0.007535227108746767,
				0.9999449253082275
			],
			"scale":[
				0.9999999403953552,
				1.0000001192092896,
				0.9999998807907104
			],
			"translation":[
				-7.865310180932283e-08,
				1.7510005235671997,
				1.9063008949160576e-09
			]
		},
		{
			"children":[
				6
			],
			"name":"Bone.011",
			"rotation":[
				-0.9998129606246948,
				0.005442511290311813,
				7.927010301500559e-05,
				0.018560858443379402
			],
			"scale":[
				0.9999998807907104,
				0.9999999403953552,
				0.9999999403953552
			],
			"translation":[
				0.009146180003881454,
				0.140974760055542,
				-0.4485398232936859
			]
		},
		{
			"name":"neutral_bone",
			"rotation":[
				-0.7071067690849304,
				0,
				0,
				0.7071067690849304
			]
		},
		{
			"mesh":0,
			"name":"Bot",
			"skin":0
		},
		{
			"children":[
				9,
				1,
				3,
				5,
				7,
				8
			],
			"name":"Armature",
			"rotation":[
				0,
				-1,
				0,
				1.6292067073209182e-07
			],
			"scale":[
				0.9716612100601196,
				0.9716612100601196,
				0.9716612100601196
			],
			"translation":[
				-0.9036548137664795,
				2.017194986343384,
				-0.0025406857021152973
			]
		}
	],
	"animations":[
		{
			"channels":[
				{
					"sampler":0,
					"target":{
						"node":1,
						"path":"translation"
					}
				},
				{
					"sampler":1,
					"target":{
						"node":1,
						"path":"rotation"
					}
				},
				{
					"sampler":2,
					"target":{
						"node":1,
						"path":"scale"
					}
				},
				{
					"sampler":3,
					"target":{
						"node":0,
						"path":"translation"
					}
				},
				{
					"sampler":4,
					"target":{
						"node":0,
						"path":"rotation"
					}
				},
				{
					"sampler":5,
					"target":{
						"node":0,
						"path":"scale"
					}
				},
				{
					"sampler":6,
					"target":{
						"node":3,
						"path":"translation"
					}
				},
				{
					"sampler":7,
					"target":{
						"node":3,
						"path":"rotation"
					}
				},
				{
					"sampler":8,
					"target":{
						"node":3,
						"path":"scale"
					}
				},
				{
					"sampler":9,
					"target":{
						"node":2,
						"path":"translation"
					}
				},
				{
					"sampler":10,
					"target":{
						"node":2,
						"path":"rotation"
					}
				},
				{
					"sampler":11,
					"target":{
						"node":2,
						"path":"scale"
					}
				},
				{
					"sampler":12,
					"target":{
						"node":5,
						"path":"translation"
					}
				},
				{
					"sampler":13,
					"target":{
						"node":5,
						"path":"rotation"
					}
				},
				{
					"sampler":14,
					"target":{
						"node":5,
						"path":"scale"
					}
				},
				{
					"sampler":15,
					"target":{
						"node":4,
						"path":"translation"
					}
				},
				{
					"sampler":16,
					"target":{
						"node":4,
						"path":"rotation"
					}
				},
				{
					"sampler":17,
					"target":{
						"node":4,
						"path":"scale"
					}
				},
				{
					"sampler":18,
					"target":{
						"node":7,
						"path":"translation"
					}
				},
				{
					"sampler":19,
					"target":{
						"node":7,
						"path":"rotation"
					}
				},
				{
					"sampler":20,
					"target":{
						"node":7,
						"path":"scale"
					}
				},
				{
					"sampler":21,
					"target":{
						"node":6,
						"path":"translation"
					}
				},
				{
					"sampler":22,
					"target":{
						"node":6,
						"path":"rotation"
					}
				},
				{
					"sampler":23,
					"target":{
						"node":6,
						"path":"scale"
					}
				}
			],
			"name":"Walk",
			"samplers":[
				{
					"input":7,
					"interpolation":"STEP",
					"output":8
				},
				{
					"input":9,
					"interpolation":"LINEAR",
					"output":10
				},
				{
					"input":7,
					"interpolation":"STEP",
					"output":11
				},
				{
					"input":7,
					"interpolation":"STEP",
					"output":12
				},
				{
					"input":9,
					"interpolation":"LINEAR",
					"output":13
				},
				{
					"input":7,
					"interpolation":"STEP",
					"output":14
				},
				{
					"input":7,
					"interpolation":"STEP",
					"output":15
				},
				{
					"input":9,
					"interpolation":"LINEAR",
					"output":16
				},
				{
					"input":7,
					"interpolation":"STEP",
					"output":17
				},
				{
					"input":7,
					"interpolation":"STEP",
					"output":18
				},
				{
					"input":9,
					"interpolation":"LINEAR",
					"output":19
				},
				{
					"input":7,
					"interpolation":"STEP",
					"output":20
				},
				{
					"input":7,
					"interpolation":"STEP",
					"output":21
				},
				{
					"input":9,
					"interpolation":"LINEAR",
					"output":22
				},
				{
					"input":7,
					"interpolation":"STEP",
					"output":23
				},
				{
					"input":7,
					"interpolation":"STEP",
					"output":24
				},
				{
					"input":9,
					"interpolation":"LINEAR",
					"output":25
				},
				{
					"input":7,
					"interpolation":"STEP",
					"output":26
				},
				{
					"input":7,
					"interpolation":"STEP",
					"output":27
				},
				{
					"input":9,
					"interpolation":"LINEAR",
					"output":28
				},
				{
					"input":7,
					"interpolation":"STEP",
					"output":29
				},
				{
					"input":7,
					"interpolation":"STEP",
					"output":30
				},
				{
					"input":9,
					"interpolation":"LINEAR",
					"output":31
				},
				{
					"input":7,
					"interpolation":"STEP",
					"output":32
				}
			]
		}
	],
	"materials":[
		{
			"doubleSided":true,
			"name":"Material.001",
			"pbrMetallicRoughness":{
				"baseColorTexture":{
					"index":0
				},
				"metallicFactor":0,
				"roughnessFactor":0.5
			}
		}
	],
	"meshes":[
		{
			"name":"Cube.001",
			"primitives":[
				{
					"attributes":{
						"POSITION":0,
						"NORMAL":1,
						"TEXCOORD_0":2,
						"JOINTS_0":3,
						"WEIGHTS_0":4
					},
					"indices":5,
					"material":0
				}
			]
		}
	],
	"textures":[
		{
			"sampler":0,
			"source":0
		}
	],
	"images":[
		{
			"mimeType":"image/png",
			"name":"palette",
			"uri":"palette.png"
		}
	],
	"skins":[
		{
			"inverseBindMatrices":6,
			"joints":[
				1,
				0,
				3,
				2,
				5,
				4,
				7,
				6,
				8
			],
			"name":"Armature"
		}
	],
	"accessors":[
		{
			"bufferView":0,
			"componentType":5126,
			"count":1908,
			"max":[
				-0.5293765068054199,
				4.9286675453186035,
				2.7986013889312744
			],
			"min":[
				-1.5499876737594604,
				-1.0813459157943726,
				-2.8048717975616455
			],
			"type":"VEC3"
		},
		{
			"bufferView":1,
			"componentType":5126,
			"count":1908,
			"type":"VEC3"
		},
		{
			"bufferView":2,
			"componentType":5126,
			"count":1908,
			"type":"VEC2"
		},
		{
			"bufferView":3,
			"componentType":5121,
			"count":1908,
			"type":"VEC4"
		},
		{
			"bufferView":4,
			"componentType":5126,
			"count":1908,
			"type":"VEC4"
		},
		{
			"bufferView":5,
			"componentType":5123,
			"count":3480,
			"type":"SCALAR"
		},
		{
			"bufferView":6,
			"componentType":5126,
			"count":9,
			"type":"MAT4"
		},
		{
			"bufferView":7,
			"componentType":5126,
			"count":2,
			"max":[
				3.3333333333333335
			],
			"min":[
				0.041666666666666664
			],
			"type":"SCALAR"
		},
		{
			"bufferView":8,
			"componentType":5126,
			"count":2,
			"type":"VEC3"
		},
		{
			"bufferView":9,
			"componentType":5126,
			"count":80,
			"max":[
				3.3333333333333335
			],
			"min":[
				0.041666666666666664
			],
			"type":"SCALAR"
		},
		{
			"bufferView":10,
			"componentType":5126,
			"count":80,
			"type":"VEC4"
		},
		{
			"bufferView":11,
			"componentType":5126,
			"count":2,
			"type":"VEC3"
		},
		{
			"bufferView":12,
			"componentType":5126,
			"count":2,
			"type":"VEC3"
		},
		{
			"bufferView":13,
			"componentType":5126,
			"count":80,
			"type":"VEC4"
		},
		{
			"bufferView":14,
			"componentType":5126,
			"count":2,
			"type":"VEC3"
		},
		{
			"bufferView":15,
			"componentType":5126,
			"count":2,
			"type":"VEC3"
		},
		{
			"bufferView":16,
			"componentType":5126,
			"count":80,
			"type":"VEC4"
		},
		{
			"bufferView":17,
			"componentType":5126,
			"count":2,
			"type":"VEC3"
		},
		{
			"bufferView":18,
			"componentType":5126,
			"count":2,
			"type":"VEC3"
		},
		{
			"bufferView":19,
			"componentType":5126,
			"count":80,
			"type":"VEC4"
		},
		{
			"bufferView":20,
			"componentType":5126,
			"count":2,
			"type":"VEC3"
		},
		{
			"bufferView":21,
			"componentType":5126,
			"count":2,
			"type":"VEC3"
		},
		{
			"bufferView":22,
			"componentType":5126,
			"count":80,
			"type":"VEC4"
		},
		{
			"bufferView":23,
			"componentType":5126,
			"count":2,
			"type":"VEC3"
		},
		{
			"bufferView":24,
			"componentType":5126,
			"count":2,
			"type":"VEC3"
		},
		{
			"bufferView":25,
			"componentType":5126,
			"count":80,
			"type":"VEC4"
		},
		{
			"bufferView":26,
			"componentType":5126,
			"count":2,
			"type":"VEC3"
		},
		{
			"bufferView":27,
			"componentType":5126,
			"count":2,
			"type":"VEC3"
		},
		{
			"bufferView":28,
			"componentType":5126,
			"count":80,
			"type":"VEC4"
		},
		{
			"bufferView":29,
			"componentType":5126,
			"count":2,
			"type":"VEC3"
		},
		{
			"bufferView":30,
			"componentType":5126,
			"count":2,
			"type":"VEC3"
		},
		{
			"bufferView":31,
			"componentType":5126,
			"count":80,
			"type":"VEC4"
		},
		{
			"bufferView":32,
			"componentType":5126,
			"count":2,
			"type":"VEC3"
		}
	],
	"bufferViews":[
		{
			"buffer":0,
			"byteLength":22896,
			"byteOffset":0,
			"target":34962
		},
		{
			"buffer":0,
			"byteLength":22896,
			"byteOffset":22896,
			"target":34962
		},
		{
			"buffer":0,
			"byteLength":15264,
			"byteOffset":45792,
			"target":34962
		},
		{
			"buffer":0,
			"byteLength":7632,
			"byteOffset":61056,
			"target":34962
		},
		{
			"buffer":0,
			"byteLength":30528,
			"byteOffset":68688,
			"target":34962
		},
		{
			"buffer":0,
			"byteLength":6960,
			"byteOffset":99216,
			"target":34963
		},
		{
			"buffer":0,
			"byteLength":576,
			"byteOffset":106176
		},
		{
			"buffer":0,
			"byteLength":8,
			"byteOffset":106752
		},
		{
			"buffer":0,
			"byteLength":24,
			"byteOffset":106760
		},
		{
			"buffer":0,
			"byteLength":320,
			"byteOffset":106784
		},
		{
			"buffer":0,
			"byteLength":1280,
			"byteOffset":107104
		},
		{
			"buffer":0,
			"byteLength":24,
			"byteOffset":108384
		},
		{
			"buffer":0,
			"byteLength":24,
			"byteOffset":108408
		},
		{
			"buffer":0,
			"byteLength":1280,
			"byteOffset":108432
		},
		{
			"buffer":0,
			"byteLength":24,
			"byteOffset":109712
		},
		{
			"buffer":0,
			"byteLength":24,
			"byteOffset":109736
		},
		{
			"buffer":0,
			"byteLength":1280,
			"byteOffset":109760
		},
		{
			"buffer":0,
			"byteLength":24,
			"byteOffset":111040
		},
		{
			"buffer":0,
			"byteLength":24,
			"byteOffset":111064
		},
		{
			"buffer":0,
			"byteLength":1280,
			"byteOffset":111088
		},
		{
			"buffer":0,
			"byteLength":24,
			"byteOffset":112368
		},
		{
			"buffer":0,
			"byteLength":24,
			"byteOffset":112392
		},
		{
			"buffer":0,
			"byteLength":1280,
			"byteOffset":112416
		},
		{
			"buffer":0,
			"byteLength":24,
			"byteOffset":113696
		},
		{
			"buffer":0,
			"byteLength":24,
			"byteOffset":113720
		},
		{
			"buffer":0,
			"byteLength":1280,
			"byteOffset":113744
		},
		{
			"buffer":0,
			"byteLength":24,
			"byteOffset":115024
		},
		{
			"buffer":0,
			"byteLength":24,
			"byteOffset":115048
		},
		{
			"buffer":0,
			"byteLength":1280,
			"byteOffset":115072
		},
		{
			"buffer":0,
			"byteLength":24,
			"byteOffset":116352
		},
		{
			"buffer":0,
			"byteLength":24,
			"byteOffset":116376
		},
		{
			"buffer":0,
			"byteLength":1280,
			"byteOffset":116400
		},
		{
			"buffer":0,
			"byteLength":24,
			"byteOffset":117680
		}
	],
	"samplers":[
		{
			"magFilter":9729,
			"minFilter":9987
		}
	],
	"buffers":[
		{
			"byteLength":117704,
			"uri":"prime.bin"
		}
	]
}
