{
	"asset":{
		"generator":"Khronos glTF Blender I/O v4.5.48",
		"version":"2.0"
	},
	"scene":0,
	"scenes":[
		{
			"name":"Scene",
			"nodes":[
				2
			]
		}
	],
	"nodes":[
		{
			"mesh":0,
			"name":"Icosphere",
			"rotation":[
				0,
				-0.7032001614570618,
				0,
				0.7109919786453247
			],
			"translation":[
				0.6386253237724304,
				-0.15217286348342896,
				0.3607446253299713
			]
		},
		{
			"mesh":1,
			"name":"Icosphere.001",
			"rotation":[
				0,
				0.49994179606437683,
				0,
				0.8660590052604675
			],
			"translation":[
				-0.4370948374271393,
				-0.20726227760314941,
				0.36082372069358826
			]
		},
		{
			"children":[
				0,
				1
			],
			"mesh":0,
			"name":"Icosphere.002",
			"rotation":[
				0,
				0.7032001614570618,
				0,
				0.7109919190406799
			],
			"translation":[
				-0.5298214554786682,
				0.7147862911224365,
				0.46910935640335083
			]
		}
	],
	"materials":[
		{
			"doubleSided":true,
			"name":"Material.001",
			"pbrMetallicRoughness":{
				"baseColorFactor":[
					0,
					0.30319756269454956,
					0.09762421995401382,
					1
				],
				"metallicFactor":0,
				"roughnessFactor":0.5
			}
		}
	],
	"meshes":[
		{
			"name":"Icosphere",
			"primitives":[
				{
					"attributes":{
						"POSITION":0,
						"NORMAL":1,
						"TEXCOORD_0":2
					},
					"indices":3,
					"material":0
				}
			]
		},
		{
			"name":"Icosphere.001",
			"primitives":[
				{
					"attributes":{
						"POSITION":4,
						"NORMAL":5,
						"TEXCOORD_0":6
					},
					"indices":3,
					"material":0
				}
			]
		}
	],
	"accessors":[
		{
			"bufferView":0,
			"componentType":5126,
			"count":240,
			"max":[
				1.9580296277999878,
				1.2420127391815186,
				1.5768144130706787
			],
			"min":[
				-1.815015435218811,
				-1.1889855861663818,
				-1.334683895111084
			],
			"type":"VEC3"
		},
		{
			"bufferView":1,
			"componentType":5126,
			"count":240,
			"type":"VEC3"
		},
		{
			"bufferView":2,
			"componentType":5126,
			"count":240,
			"type":"VEC2"
		},
		{
			"bufferView":3,
			"componentType":5123,
			"count":360,
			"type":"SCALAR"
		},
		{
			"bufferView":4,
			"componentType":5126,
			"count":240,
			"max":[
				1.9580296277999878,
				1.2420127391815186,
				1.5768144130706787
			],
			"min":[
				-1.815015435218811,
				-1.1889855861663818,
				-1.334683895111084
			],
			"type":"VEC3"
		},
		{
			"bufferView":5,
			"componentType":5126,
			"count":240,
			"type":"VEC3"
		},
		{
			"bufferView":6,
			"componentType":5126,
			"count":240,
			"type":"VEC2"
		}
	],
	"bufferViews":[
		{
			"buffer":0,
			"byteLength":2880,
			"byteOffset":0,
			"target":34962
		},
		{
			"buffer":0,
			"byteLength":2880,
			"byteOffset":2880,
			"target":34962
		},
		{
			"buffer":0,
			"byteLength":1920,
			"byteOffset":5760,
			"target":34962
		},
		{
			"buffer":0,
			"byteLength":720,
			"byteOffset":7680,
			"target":34963
		},
		{
			"buffer":0,
			"byteLength":2880,
			"byteOffset":8400,
			"target":34962
		},
		{
			"buffer":0,
			"byteLength":2880,
			"byteOffset":11280,
			"target":34962
		},
		{
			"buffer":0,
			"byteLength":1920,
			"byteOffset":14160,
			"target":34962
		}
	],
	"buffers":[
		{
			"byteLength":16080,
			"uri":"Bush.bin"
		}
	]
}
