{
	"asset":{
		"generator":"Khronos glTF Blender I/O v4.3.47",
		"version":"2.0"
	},
	"scene":0,
	"scenes":[
		{
			"name":"Scene",
			"nodes":[
				14
			]
		}
	],
	"nodes":[
		{
			"mesh":0,
			"name":"Cube",
			"scale":[
				0.2529563009738922,
				0.2529563009738922,
				0.2529563009738922
			],
			"translation":[
				-2.0279176235198975,
				-3.252156972885132,
				-2.028109550476074
			]
		},
		{
			"mesh":1,
			"name":"Icosphere",
			"scale":[
				0.6348479986190796,
				0.6348479986190796,
				0.6348479986190796
			],
			"translation":[
				-1.0863807201385498,
				0.1793217658996582,
				-3.766566514968872
			]
		},
		{
			"mesh":2,
			"name":"Icosphere.001",
			"rotation":[
				0.7040502429008484,
				-0.53917396068573,
				0.461414635181427,
				0.02648465521633625
			],
			"scale":[
				1.0183321237564087,
				1.0183322429656982,
				1.0183322429656982
			],
			"translation":[
				-2.420232057571411,
				0.5628836154937744,
				-3.6910057067871094
			]
		},
		{
			"mesh":3,
			"name":"Icosphere.002",
			"rotation":[
				0.41217485070228577,
				-0.31565061211586,
				0.2701277434825897,
				0.8108684420585632
			],
			"scale":[
				1.0183322429656982,
				1.0183322429656982,
				1.0183322429656982
			],
			"translation":[
				-2.5609898567199707,
				0.9209871292114258,
				-2.529522180557251
			]
		},
		{
			"mesh":4,
			"name":"Icosphere.003",
			"rotation":[
				0.6954984664916992,
				-0.5326248407363892,
				0.4558100998401642,
				0.157574862241745
			],
			"scale":[
				1.0183322429656982,
				1.0183322429656982,
				1.0183321237564087
			],
			"translation":[
				-3.969292640686035,
				0.008385419845581055,
				-1.9180938005447388
			]
		},
		{
			"mesh":5,
			"name":"Icosphere.004",
			"rotation":[
				-0.0638875663280487,
				-0.12090397626161575,
				-0.5731582641601562,
				0.8079543709754944
			],
			"scale":[
				1.398508906364441,
				1.398508906364441,
				1.398508906364441
			],
			"translation":[
				-4.129865646362305,
				1.5496444702148438,
				-0.6573225259780884
			]
		},
		{
			"mesh":6,
			"name":"Icosphere.005",
			"rotation":[
				0.27858132123947144,
				0.04706872999668121,
				-0.4864359498023987,
				0.8267752528190613
			],
			"scale":[
				0.6166171431541443,
				0.6166171431541443,
				0.6166171431541443
			],
			"translation":[
				-4.502458572387695,
				0.6115415096282959,
				-0.8406956195831299
			]
		},
		{
			"mesh":7,
			"name":"Icosphere.006",
			"rotation":[
				-0.14004437625408173,
				-0.023661717772483826,
				0.24453400075435638,
				0.9591823816299438
			],
			"scale":[
				-0.9417234063148499,
				-0.9417234063148499,
				-0.9417232871055603
			],
			"translation":[
				-3.058182716369629,
				-0.47240471839904785,
				-0.8175996541976929
			]
		},
		{
			"mesh":8,
			"name":"Icosphere.007",
			"rotation":[
				0.12536439299583435,
				0.021181399002671242,
				-0.21890103816986084,
				0.9674282670021057
			],
			"scale":[
				0.6166171431541443,
				0.6166172027587891,
				0.6166171431541443
			],
			"translation":[
				-3.9086875915527344,
				0.2680842876434326,
				0.44916343688964844
			]
		},
		{
			"mesh":9,
			"name":"Icosphere.008",
			"rotation":[
				-0.961056113243103,
				-0.0832802876830101,
				0.24461881816387177,
				0.09796614199876785
			],
			"scale":[
				0.6348479986190796,
				0.6348480582237244,
				0.6348479986190796
			],
			"translation":[
				-1.162989616394043,
				-0.12305879592895508,
				-2.3565797805786133
			]
		},
		{
			"mesh":10,
			"name":"Icosphere.010",
			"scale":[
				0.6348479986190796,
				0.6348479986190796,
				0.6348479986190796
			],
			"translation":[
				-0.9047791957855225,
				-0.6667251586914062,
				-0.8478649854660034
			]
		},
		{
			"mesh":11,
			"name":"Icosphere.011",
			"translation":[
				-2.085488796234131,
				0.9352750778198242,
				0.04964625835418701
			]
		},
		{
			"mesh":12,
			"name":"Icosphere.012",
			"scale":[
				0.578335702419281,
				0.578335702419281,
				0.578335702419281
			],
			"translation":[
				-1.1304199695587158,
				0.5200467109680176,
				0.7785954475402832
			]
		},
		{
			"mesh":13,
			"name":"Icosphere.013",
			"rotation":[
				-0.29706183075904846,
				0.13312885165214539,
				0.39651739597320557,
				0.8583734631538391
			],
			"scale":[
				0.9379527568817139,
				0.9379528164863586,
				0.9379527568817139
			],
			"translation":[
				-2.2148144245147705,
				0.2843012809753418,
				1.114534616470337
			]
		},
		{
			"children":[
				0,
				1,
				2,
				3,
				4,
				5,
				6,
				7,
				8,
				9,
				10,
				11,
				12,
				13
			],
			"mesh":14,
			"name":"TREE",
			"scale":[
				3.9532523155212402,
				3.9532523155212402,
				3.9532523155212402
			],
			"translation":[
				7.83676290512085,
				11.707035064697266,
				7.60470724105835
			]
		}
	],
	"materials":[
		{
			"doubleSided":true,
			"name":"Material.001",
			"pbrMetallicRoughness":{
				"baseColorFactor":[
					0.2455223798751831,
					0.06921174377202988,
					0.012471934780478477,
					1
				],
				"metallicFactor":0,
				"roughnessFactor":0.5
			}
		},
		{
			"doubleSided":true,
			"name":"Material.002",
			"pbrMetallicRoughness":{
				"baseColorFactor":[
					0.05070359259843826,
					0.8003232479095459,
					0.03826514258980751,
					1
				],
				"metallicFactor":0,
				"roughnessFactor":0.5
			}
		},
		{
			"doubleSided":true,
			"name":"Material.003",
			"pbrMetallicRoughness":{
				"baseColorFactor":[
					0.2697521150112152,
					0.8007591962814331,
					0.21379631757736206,
					1
				],
				"metallicFactor":0,
				"roughnessFactor":0.5
			}
		}
	],
	"meshes":[
		{
			"name":"Cube",
			"primitives":[
				{
					"attributes":{
						"POSITION":0,
						"NORMAL":1
					},
					"indices":2,
					"material":0
				}
			]
		},
		{
			"name":"Icosphere.001",
			"primitives":[
				{
					"attributes":{
						"POSITION":3,
						"NORMAL":4,
						"TEXCOORD_0":5
					},
					"indices":6,
					"material":1
				}
			]
		},
		{
			"name":"Icosphere.002",
			"primitives":[
				{
					"attributes":{
						"POSITION":7,
						"NORMAL":8,
						"TEXCOORD_0":9
					},
					"indices":6,
					"material":1
				}
			]
		},
		{
			"name":"Icosphere.003",
			"primitives":[
				{
					"attributes":{
						"POSITION":10,
						"NORMAL":11,
						"TEXCOORD_0":12
					},
					"indices":6,
					"material":2
				}
			]
		},
		{
			"name":"Icosphere.004",
			"primitives":[
				{
					"attributes":{
						"POSITION":13,
						"NORMAL":14,
						"TEXCOORD_0":15
					},
					"indices":6,
					"material":1
				}
			]
		},
		{
			"name":"Icosphere.005",
			"primitives":[
				{
					"attributes":{
						"POSITION":16,
						"NORMAL":17,
						"TEXCOORD_0":18
					},
					"indices":6,
					"material":1
				}
			]
		},
		{
			"name":"Icosphere.006",
			"primitives":[
				{
					"attributes":{
						"POSITION":19,
						"NORMAL":20,
						"TEXCOORD_0":21
					},
					"indices":6,
					"material":2
				}
			]
		},
		{
			"name":"Icosphere.007",
			"primitives":[
				{
					"attributes":{
						"POSITION":22,
						"NORMAL":23,
						"TEXCOORD_0":24
					},
					"indices":6,
					"material":1
				}
			]
		},
		{
			"name":"Icosphere.008",
			"primitives":[
				{
					"attributes":{
						"POSITION":25,
						"NORMAL":26,
						"TEXCOORD_0":27
					},
					"indices":6,
					"material":2
				}
			]
		},
		{
			"name":"Icosphere.009",
			"primitives":[
				{
					"attributes":{
						"POSITION":28,
						"NORMAL":29,
						"TEXCOORD_0":30
					},
					"indices":6,
					"material":1
				}
			]
		},
		{
			"name":"Icosphere.011",
			"primitives":[
				{
					"attributes":{
						"POSITION":31,
						"NORMAL":32,
						"TEXCOORD_0":33
					},
					"indices":6,
					"material":1
				}
			]
		},
		{
			"name":"Icosphere.012",
			"primitives":[
				{
					"attributes":{
						"POSITION":34,
						"NORMAL":35,
						"TEXCOORD_0":36
					},
					"indices":6,
					"material":2
				}
			]
		},
		{
			"name":"Icosphere.013",
			"primitives":[
				{
					"attributes":{
						"POSITION":37,
						"NORMAL":38,
						"TEXCOORD_0":39
					},
					"indices":6,
					"material":2
				}
			]
		},
		{
			"name":"Icosphere.014",
			"primitives":[
				{
					"attributes":{
						"POSITION":40,
						"NORMAL":41,
						"TEXCOORD_0":42
					},
					"indices":6,
					"material":1
				}
			]
		},
		{
			"name":"Icosphere.010",
			"primitives":[
				{
					"attributes":{
						"POSITION":43,
						"NORMAL":44,
						"TEXCOORD_0":45
					},
					"indices":6,
					"material":1
				}
			]
		}
	],
	"accessors":[
		{
			"bufferView":0,
			"componentType":5126,
			"count":1969,
			"max":[
				8.072287559509277,
				18.198904037475586,
				13.634448051452637
			],
			"min":[
				-11.068740844726562,
				-0.4905204772949219,
				-7.433757781982422
			],
			"type":"VEC3"
		},
		{
			"bufferView":1,
			"componentType":5126,
			"count":1969,
			"type":"VEC3"
		},
		{
			"bufferView":2,
			"componentType":5123,
			"count":4245,
			"type":"SCALAR"
		},
		{
			"bufferView":3,
			"componentType":5126,
			"count":60,
			"max":[
				0.8944249749183655,
				1,
				0.8506399989128113
			],
			"min":[
				-0.8944249749183655,
				-1,
				-0.8506399989128113
			],
			"type":"VEC3"
		},
		{
			"bufferView":4,
			"componentType":5126,
			"count":60,
			"type":"VEC3"
		},
		{
			"bufferView":5,
			"componentType":5126,
			"count":60,
			"type":"VEC2"
		},
		{
			"bufferView":6,
			"componentType":5123,
			"count":60,
			"type":"SCALAR"
		},
		{
			"bufferView":7,
			"componentType":5126,
			"count":60,
			"max":[
				0.8944249749183655,
				1,
				0.8506399989128113
			],
			"min":[
				-0.8944249749183655,
				-1,
				-0.8506399989128113
			],
			"type":"VEC3"
		},
		{
			"bufferView":8,
			"componentType":5126,
			"count":60,
			"type":"VEC3"
		},
		{
			"bufferView":9,
			"componentType":5126,
			"count":60,
			"type":"VEC2"
		},
		{
			"bufferView":10,
			"componentType":5126,
			"count":60,
			"max":[
				0.8944249749183655,
				1,
				0.8506399989128113
			],
			"min":[
				-0.8944249749183655,
				-1,
				-0.8506399989128113
			],
			"type":"VEC3"
		},
		{
			"bufferView":11,
			"componentType":5126,
			"count":60,
			"type":"VEC3"
		},
		{
			"bufferView":12,
			"componentType":5126,
			"count":60,
			"type":"VEC2"
		},
		{
			"bufferView":13,
			"componentType":5126,
			"count":60,
			"max":[
				0.8944249749183655,
				1,
				0.8506399989128113
			],
			"min":[
				-0.8944249749183655,
				-1,
				-0.8506399989128113
			],
			"type":"VEC3"
		},
		{
			"bufferView":14,
			"componentType":5126,
			"count":60,
			"type":"VEC3"
		},
		{
			"bufferView":15,
			"componentType":5126,
			"count":60,
			"type":"VEC2"
		},
		{
			"bufferView":16,
			"componentType":5126,
			"count":60,
			"max":[
				0.8944249749183655,
				1,
				0.8506399989128113
			],
			"min":[
				-0.8944249749183655,
				-1,
				-0.8506399989128113
			],
			"type":"VEC3"
		},
		{
			"bufferView":17,
			"componentType":5126,
			"count":60,
			"type":"VEC3"
		},
		{
			"bufferView":18,
			"componentType":5126,
			"count":60,
			"type":"VEC2"
		},
		{
			"bufferView":19,
			"componentType":5126,
			"count":60,
			"max":[
				0.8944249749183655,
				1,
				0.8506399989128113
			],
			"min":[
				-0.8944249749183655,
				-1,
				-0.8506399989128113
			],
			"type":"VEC3"
		},
		{
			"bufferView":20,
			"componentType":5126,
			"count":60,
			"type":"VEC3"
		},
		{
			"bufferView":21,
			"componentType":5126,
			"count":60,
			"type":"VEC2"
		},
		{
			"bufferView":22,
			"componentType":5126,
			"count":60,
			"max":[
				0.8944249749183655,
				1,
				0.8506399989128113
			],
			"min":[
				-0.8944249749183655,
				-1,
				-0.8506399989128113
			],
			"type":"VEC3"
		},
		{
			"bufferView":23,
			"componentType":5126,
			"count":60,
			"type":"VEC3"
		},
		{
			"bufferView":24,
			"componentType":5126,
			"count":60,
			"type":"VEC2"
		},
		{
			"bufferView":25,
			"componentType":5126,
			"count":60,
			"max":[
				0.8944249749183655,
				1,
				0.8506399989128113
			],
			"min":[
				-0.8944249749183655,
				-1,
				-0.8506399989128113
			],
			"type":"VEC3"
		},
		{
			"bufferView":26,
			"componentType":5126,
			"count":60,
			"type":"VEC3"
		},
		{
			"bufferView":27,
			"componentType":5126,
			"count":60,
			"type":"VEC2"
		},
		{
			"bufferView":28,
			"componentType":5126,
			"count":60,
			"max":[
				0.8944249749183655,
				1,
				0.8506399989128113
			],
			"min":[
				-0.8944249749183655,
				-1,
				-0.8506399989128113
			],
			"type":"VEC3"
		},
		{
			"bufferView":29,
			"componentType":5126,
			"count":60,
			"type":"VEC3"
		},
		{
			"bufferView":30,
			"componentType":5126,
			"count":60,
			"type":"VEC2"
		},
		{
			"bufferView":31,
			"componentType":5126,
			"count":60,
			"max":[
				0.8944249749183655,
				1,
				0.8506399989128113
			],
			"min":[
				-0.8944249749183655,
				-1,
				-0.8506399989128113
			],
			"type":"VEC3"
		},
		{
			"bufferView":32,
			"componentType":5126,
			"count":60,
			"type":"VEC3"
		},
		{
			"bufferView":33,
			"componentType":5126,
			"count":60,
			"type":"VEC2"
		},
		{
			"bufferView":34,
			"componentType":5126,
			"count":60,
			"max":[
				0.8944249749183655,
				1,
				0.8506399989128113
			],
			"min":[
				-0.8944249749183655,
				-1,
				-0.8506399989128113
			],
			"type":"VEC3"
		},
		{
			"bufferView":35,
			"componentType":5126,
			"count":60,
			"type":"VEC3"
		},
		{
			"bufferView":36,
			"componentType":5126,
			"count":60,
			"type":"VEC2"
		},
		{
			"bufferView":37,
			"componentType":5126,
			"count":60,
			"max":[
				0.8944249749183655,
				1,
				0.8506399989128113
			],
			"min":[
				-0.8944249749183655,
				-1,
				-0.8506399989128113
			],
			"type":"VEC3"
		},
		{
			"bufferView":38,
			"componentType":5126,
			"count":60,
			"type":"VEC3"
		},
		{
			"bufferView":39,
			"componentType":5126,
			"count":60,
			"type":"VEC2"
		},
		{
			"bufferView":40,
			"componentType":5126,
			"count":60,
			"max":[
				0.8944249749183655,
				1,
				0.8506399989128113
			],
			"min":[
				-0.8944249749183655,
				-1,
				-0.8506399989128113
			],
			"type":"VEC3"
		},
		{
			"bufferView":41,
			"componentType":5126,
			"count":60,
			"type":"VEC3"
		},
		{
			"bufferView":42,
			"componentType":5126,
			"count":60,
			"type":"VEC2"
		},
		{
			"bufferView":43,
			"componentType":5126,
			"count":60,
			"max":[
				0.8944249749183655,
				1,
				0.8506399989128113
			],
			"min":[
				-0.8944249749183655,
				-1,
				-0.8506399989128113
			],
			"type":"VEC3"
		},
		{
			"bufferView":44,
			"componentType":5126,
			"count":60,
			"type":"VEC3"
		},
		{
			"bufferView":45,
			"componentType":5126,
			"count":60,
			"type":"VEC2"
		}
	],
	"bufferViews":[
		{
			"buffer":0,
			"byteLength":23628,
			"byteOffset":0,
			"target":34962
		},
		{
			"buffer":0,
			"byteLength":23628,
			"byteOffset":23628,
			"target":34962
		},
		{
			"buffer":0,
			"byteLength":8490,
			"byteOffset":47256,
			"target":34963
		},
		{
			"buffer":0,
			"byteLength":720,
			"byteOffset":55748,
			"target":34962
		},
		{
			"buffer":0,
			"byteLength":720,
			"byteOffset":56468,
			"target":34962
		},
		{
			"buffer":0,
			"byteLength":480,
			"byteOffset":57188,
			"target":34962
		},
		{
			"buffer":0,
			"byteLength":120,
			"byteOffset":57668,
			"target":34963
		},
		{
			"buffer":0,
			"byteLength":720,
			"byteOffset":57788,
			"target":34962
		},
		{
			"buffer":0,
			"byteLength":720,
			"byteOffset":58508,
			"target":34962
		},
		{
			"buffer":0,
			"byteLength":480,
			"byteOffset":59228,
			"target":34962
		},
		{
			"buffer":0,
			"byteLength":720,
			"byteOffset":59708,
			"target":34962
		},
		{
			"buffer":0,
			"byteLength":720,
			"byteOffset":60428,
			"target":34962
		},
		{
			"buffer":0,
			"byteLength":480,
			"byteOffset":61148,
			"target":34962
		},
		{
			"buffer":0,
			"byteLength":720,
			"byteOffset":61628,
			"target":34962
		},
		{
			"buffer":0,
			"byteLength":720,
			"byteOffset":62348,
			"target":34962
		},
		{
			"buffer":0,
			"byteLength":480,
			"byteOffset":63068,
			"target":34962
		},
		{
			"buffer":0,
			"byteLength":720,
			"byteOffset":63548,
			"target":34962
		},
		{
			"buffer":0,
			"byteLength":720,
			"byteOffset":64268,
			"target":34962
		},
		{
			"buffer":0,
			"byteLength":480,
			"byteOffset":64988,
			"target":34962
		},
		{
			"buffer":0,
			"byteLength":720,
			"byteOffset":65468,
			"target":34962
		},
		{
			"buffer":0,
			"byteLength":720,
			"byteOffset":66188,
			"target":34962
		},
		{
			"buffer":0,
			"byteLength":480,
			"byteOffset":66908,
			"target":34962
		},
		{
			"buffer":0,
			"byteLength":720,
			"byteOffset":67388,
			"target":34962
		},
		{
			"buffer":0,
			"byteLength":720,
			"byteOffset":68108,
			"target":34962
		},
		{
			"buffer":0,
			"byteLength":480,
			"byteOffset":68828,
			"target":34962
		},
		{
			"buffer":0,
			"byteLength":720,
			"byteOffset":69308,
			"target":34962
		},
		{
			"buffer":0,
			"byteLength":720,
			"byteOffset":70028,
			"target":34962
		},
		{
			"buffer":0,
			"byteLength":480,
			"byteOffset":70748,
			"target":34962
		},
		{
			"buffer":0,
			"byteLength":720,
			"byteOffset":71228,
			"target":34962
		},
		{
			"buffer":0,
			"byteLength":720,
			"byteOffset":71948,
			"target":34962
		},
		{
			"buffer":0,
			"byteLength":480,
			"byteOffset":72668,
			"target":34962
		},
		{
			"buffer":0,
			"byteLength":720,
			"byteOffset":73148,
			"target":34962
		},
		{
			"buffer":0,
			"byteLength":720,
			"byteOffset":73868,
			"target":34962
		},
		{
			"buffer":0,
			"byteLength":480,
			"byteOffset":74588,
			"target":34962
		},
		{
			"buffer":0,
			"byteLength":720,
			"byteOffset":75068,
			"target":34962
		},
		{
			"buffer":0,
			"byteLength":720,
			"byteOffset":75788,
			"target":34962
		},
		{
			"buffer":0,
			"byteLength":480,
			"byteOffset":76508,
			"target":34962
		},
		{
			"buffer":0,
			"byteLength":720,
			"byteOffset":76988,
			"target":34962
		},
		{
			"buffer":0,
			"byteLength":720,
			"byteOffset":77708,
			"target":34962
		},
		{
			"buffer":0,
			"byteLength":480,
			"byteOffset":78428,
			"target":34962
		},
		{
			"buffer":0,
			"byteLength":720,
			"byteOffset":78908,
			"target":34962
		},
		{
			"buffer":0,
			"byteLength":720,
			"byteOffset":79628,
			"target":34962
		},
		{
			"buffer":0,
			"byteLength":480,
			"byteOffset":80348,
			"target":34962
		},
		{
			"buffer":0,
			"byteLength":720,
			"byteOffset":80828,
			"target":34962
		},
		{
			"buffer":0,
			"byteLength":720,
			"byteOffset":81548,
			"target":34962
		},
		{
			"buffer":0,
			"byteLength":480,
			"byteOffset":82268,
			"target":34962
		}
	],
	"buffers":[
		{
			"byteLength":82748,
			"uri":"Tree.bin"
		}
	]
}
