{
	"asset":{
		"generator":"Khronos glTF Blender I/O v4.3.47",
		"version":"2.0"
	},
	"scene":0,
	"scenes":[
		{
			"name":"Scene",
			"nodes":[
				0
			]
		}
	],
	"nodes":[
		{
			"mesh":0,
			"name":"Cylinder",
			"rotation":[
				9.610502456780523e-05,
				0.7021862864494324,
				-0.10581924021244049,
				0.7040857076644897
			],
			"translation":[
				1.3992053270339966,
				-0.12042626738548279,
				0.8270427584648132
			]
		}
	],
	"animations":[
		{
			"channels":[
				{
					"sampler":0,
					"target":{
						"node":0,
						"path":"translation"
					}
				},
				{
					"sampler":1,
					"target":{
						"node":0,
						"path":"rotation"
					}
				},
				{
					"sampler":2,
					"target":{
						"node":0,
						"path":"scale"
					}
				}
			],
			"name":"Attack",
			"samplers":[
				{
					"input":20,
					"interpolation":"LINEAR",
					"output":21
				},
				{
					"input":20,
					"interpolation":"LINEAR",
					"output":22
				},
				{
					"input":23,
					"interpolation":"STEP",
					"output":24
				}
			]
		},
		{
			"channels":[
				{
					"sampler":0,
					"target":{
						"node":0,
						"path":"translation"
					}
				},
				{
					"sampler":1,
					"target":{
						"node":0,
						"path":"rotation"
					}
				},
				{
					"sampler":2,
					"target":{
						"node":0,
						"path":"scale"
					}
				}
			],
			"name":"Block",
			"samplers":[
				{
					"input":25,
					"interpolation":"LINEAR",
					"output":26
				},
				{
					"input":25,
					"interpolation":"LINEAR",
					"output":27
				},
				{
					"input":28,
					"interpolation":"STEP",
					"output":29
				}
			]
		},
		{
			"channels":[
				{
					"sampler":0,
					"target":{
						"node":0,
						"path":"translation"
					}
				},
				{
					"sampler":1,
					"target":{
						"node":0,
						"path":"rotation"
					}
				},
				{
					"sampler":2,
					"target":{
						"node":0,
						"path":"scale"
					}
				}
			],
			"name":"Static",
			"samplers":[
				{
					"input":30,
					"interpolation":"LINEAR",
					"output":31
				},
				{
					"input":32,
					"interpolation":"STEP",
					"output":33
				},
				{
					"input":32,
					"interpolation":"STEP",
					"output":34
				}
			]
		}
	],
	"materials":[
		{
			"doubleSided":true,
			"name":"Cover",
			"pbrMetallicRoughness":{
				"baseColorTexture":{
					"index":0
				},
				"metallicFactor":0,
				"roughnessFactor":0.5
			}
		},
		{
			"doubleSided":true,
			"name":"Wood",
			"pbrMetallicRoughness":{
				"baseColorTexture":{
					"index":1
				},
				"metallicFactor":0,
				"roughnessFactor":0.5
			}
		},
		{
			"doubleSided":true,
			"name":"graphite",
			"pbrMetallicRoughness":{
				"baseColorTexture":{
					"index":2
				},
				"metallicFactor":0,
				"roughnessFactor":0.5
			}
		},
		{
			"doubleSided":true,
			"name":"Rubber",
			"pbrMetallicRoughness":{
				"baseColorTexture":{
					"index":3
				},
				"metallicFactor":0,
				"roughnessFactor":0.5
			}
		},
		{
			"doubleSided":true,
			"name":"Aluminium",
			"pbrMetallicRoughness":{
				"baseColorTexture":{
					"index":4
				},
				"metallicFactor":0,
				"roughnessFactor":0.5
			}
		}
	],
	"meshes":[
		{
			"name":"Cylinder",
			"primitives":[
				{
					"attributes":{
						"POSITION":0,
						"NORMAL":1,
						"TEXCOORD_0":2
					},
					"indices":3,
					"material":0
				},
				{
					"attributes":{
						"POSITION":4,
						"NORMAL":5,
						"TEXCOORD_0":6
					},
					"indices":7,
					"material":1
				},
				{
					"attributes":{
						"POSITION":8,
						"NORMAL":9,
						"TEXCOORD_0":10
					},
					"indices":11,
					"material":2
				},
				{
					"attributes":{
						"POSITION":12,
						"NORMAL":13,
						"TEXCOORD_0":14
					},
					"indices":15,
					"material":3
				},
				{
					"attributes":{
						"POSITION":16,
						"NORMAL":17,
						"TEXCOORD_0":18
					},
					"indices":19,
					"material":4
				}
			]
		}
	],
	"textures":[
		{
			"sampler":0,
			"source":0
		},
		{
			"sampler":0,
			"source":1
		},
		{
			"sampler":0,
			"source":2
		},
		{
			"sampler":0,
			"source":3
		},
		{
			"sampler":0,
			"source":4
		}
	],
	"images":[
		{
			"mimeType":"image/png",
			"name":"Cover",
			"uri":"texture/Cover.png"
		},
		{
			"mimeType":"image/png",
			"name":"Wood",
			"uri":"texture/Wood.png"
		},
		{
			"mimeType":"image/png",
			"name":"Graphite",
			"uri":"texture/Graphite.png"
		},
		{
			"mimeType":"image/png",
			"name":"Rubber",
			"uri":"texture/Rubber.png"
		},
		{
			"mimeType":"image/png",
			"name":"Aluminium",
			"uri":"texture/Aluminium.png"
		}
	],
	"accessors":[
		{
			"bufferView":0,
			"componentType":5126,
			"count":119,
			"max":[
				0.23897621035575867,
				2.0806543827056885,
				0.23591355979442596
			],
			"min":[
				-0.23897621035575867,
				0.3782612085342407,
				-0.24000000953674316
			],
			"type":"VEC3"
		},
		{
			"bufferView":1,
			"componentType":5126,
			"count":119,
			"type":"VEC3"
		},
		{
			"bufferView":2,
			"componentType":5126,
			"count":119,
			"type":"VEC2"
		},
		{
			"bufferView":3,
			"componentType":5123,
			"count":153,
			"type":"SCALAR"
		},
		{
			"bufferView":4,
			"componentType":5126,
			"count":185,
			"max":[
				0.23897621035575867,
				2.388127565383911,
				0.23591355979442596
			],
			"min":[
				-0.23897621035575867,
				2.045145273208618,
				-0.24000000953674316
			],
			"type":"VEC3"
		},
		{
			"bufferView":5,
			"componentType":5126,
			"count":185,
			"type":"VEC3"
		},
		{
			"bufferView":6,
			"componentType":5126,
			"count":185,
			"type":"VEC2"
		},
		{
			"bufferView":7,
			"componentType":5123,
			"count":255,
			"type":"SCALAR"
		},
		{
			"bufferView":8,
			"componentType":5126,
			"count":153,
			"max":[
				0.12976637482643127,
				2.6271893978118896,
				0.11945080757141113
			],
			"min":[
				-0.11398416757583618,
				2.363316774368286,
				-0.11725063621997833
			],
			"type":"VEC3"
		},
		{
			"bufferView":9,
			"componentType":5126,
			"count":153,
			"type":"VEC3"
		},
		{
			"bufferView":10,
			"componentType":5126,
			"count":153,
			"type":"VEC2"
		},
		{
			"bufferView":11,
			"componentType":5123,
			"count":249,
			"type":"SCALAR"
		},
		{
			"bufferView":12,
			"componentType":5126,
			"count":459,
			"max":[
				0.2111763209104538,
				0.1694021224975586,
				0.2084699422121048
			],
			"min":[
				-0.2111763209104538,
				-0.10829901695251465,
				-0.21208101511001587
			],
			"type":"VEC3"
		},
		{
			"bufferView":13,
			"componentType":5126,
			"count":459,
			"type":"VEC3"
		},
		{
			"bufferView":14,
			"componentType":5126,
			"count":459,
			"type":"VEC2"
		},
		{
			"bufferView":15,
			"componentType":5123,
			"count":861,
			"type":"SCALAR"
		},
		{
			"bufferView":16,
			"componentType":5126,
			"count":204,
			"max":[
				0.2306397408246994,
				0.3782612085342407,
				0.2276839166879654
			],
			"min":[
				-0.2306397408246994,
				0.1694021224975586,
				-0.23162783682346344
			],
			"type":"VEC3"
		},
		{
			"bufferView":17,
			"componentType":5126,
			"count":204,
			"type":"VEC3"
		},
		{
			"bufferView":18,
			"componentType":5126,
			"count":204,
			"type":"VEC2"
		},
		{
			"bufferView":19,
			"componentType":5123,
			"count":306,
			"type":"SCALAR"
		},
		{
			"bufferView":20,
			"componentType":5126,
			"count":43,
			"max":[
				1.75
			],
			"min":[
				0
			],
			"type":"SCALAR"
		},
		{
			"bufferView":21,
			"componentType":5126,
			"count":43,
			"type":"VEC3"
		},
		{
			"bufferView":22,
			"componentType":5126,
			"count":43,
			"type":"VEC4"
		},
		{
			"bufferView":23,
			"componentType":5126,
			"count":2,
			"max":[
				1.75
			],
			"min":[
				0
			],
			"type":"SCALAR"
		},
		{
			"bufferView":24,
			"componentType":5126,
			"count":2,
			"type":"VEC3"
		},
		{
			"bufferView":25,
			"componentType":5126,
			"count":17,
			"max":[
				0.6666666666666666
			],
			"min":[
				0
			],
			"type":"SCALAR"
		},
		{
			"bufferView":26,
			"componentType":5126,
			"count":17,
			"type":"VEC3"
		},
		{
			"bufferView":27,
			"componentType":5126,
			"count":17,
			"type":"VEC4"
		},
		{
			"bufferView":28,
			"componentType":5126,
			"count":2,
			"max":[
				0.6666666666666666
			],
			"min":[
				0
			],
			"type":"SCALAR"
		},
		{
			"bufferView":29,
			"componentType":5126,
			"count":2,
			"type":"VEC3"
		},
		{
			"bufferView":30,
			"componentType":5126,
			"count":42,
			"max":[
				1.75
			],
			"min":[
				0.041666666666666664
			],
			"type":"SCALAR"
		},
		{
			"bufferView":31,
			"componentType":5126,
			"count":42,
			"type":"VEC3"
		},
		{
			"bufferView":32,
			"componentType":5126,
			"count":2,
			"max":[
				1.75
			],
			"min":[
				0.041666666666666664
			],
			"type":"SCALAR"
		},
		{
			"bufferView":33,
			"componentType":5126,
			"count":2,
			"type":"VEC4"
		},
		{
			"bufferView":34,
			"componentType":5126,
			"count":2,
			"type":"VEC3"
		}
	],
	"bufferViews":[
		{
			"buffer":0,
			"byteLength":1428,
			"byteOffset":0,
			"target":34962
		},
		{
			"buffer":0,
			"byteLength":1428,
			"byteOffset":1428,
			"target":34962
		},
		{
			"buffer":0,
			"byteLength":952,
			"byteOffset":2856,
			"target":34962
		},
		{
			"buffer":0,
			"byteLength":306,
			"byteOffset":3808,
			"target":34963
		},
		{
			"buffer":0,
			"byteLength":2220,
			"byteOffset":4116,
			"target":34962
		},
		{
			"buffer":0,
			"byteLength":2220,
			"byteOffset":6336,
			"target":34962
		},
		{
			"buffer":0,
			"byteLength":1480,
			"byteOffset":8556,
			"target":34962
		},
		{
			"buffer":0,
			"byteLength":510,
			"byteOffset":10036,
			"target":34963
		},
		{
			"buffer":0,
			"byteLength":1836,
			"byteOffset":10548,
			"target":34962
		},
		{
			"buffer":0,
			"byteLength":1836,
			"byteOffset":12384,
			"target":34962
		},
		{
			"buffer":0,
			"byteLength":1224,
			"byteOffset":14220,
			"target":34962
		},
		{
			"buffer":0,
			"byteLength":498,
			"byteOffset":15444,
			"target":34963
		},
		{
			"buffer":0,
			"byteLength":5508,
			"byteOffset":15944,
			"target":34962
		},
		{
			"buffer":0,
			"byteLength":5508,
			"byteOffset":21452,
			"target":34962
		},
		{
			"buffer":0,
			"byteLength":3672,
			"byteOffset":26960,
			"target":34962
		},
		{
			"buffer":0,
			"byteLength":1722,
			"byteOffset":30632,
			"target":34963
		},
		{
			"buffer":0,
			"byteLength":2448,
			"byteOffset":32356,
			"target":34962
		},
		{
			"buffer":0,
			"byteLength":2448,
			"byteOffset":34804,
			"target":34962
		},
		{
			"buffer":0,
			"byteLength":1632,
			"byteOffset":37252,
			"target":34962
		},
		{
			"buffer":0,
			"byteLength":612,
			"byteOffset":38884,
			"target":34963
		},
		{
			"buffer":0,
			"byteLength":172,
			"byteOffset":39496
		},
		{
			"buffer":0,
			"byteLength":516,
			"byteOffset":39668
		},
		{
			"buffer":0,
			"byteLength":688,
			"byteOffset":40184
		},
		{
			"buffer":0,
			"byteLength":8,
			"byteOffset":40872
		},
		{
			"buffer":0,
			"byteLength":24,
			"byteOffset":40880
		},
		{
			"buffer":0,
			"byteLength":68,
			"byteOffset":40904
		},
		{
			"buffer":0,
			"byteLength":204,
			"byteOffset":40972
		},
		{
			"buffer":0,
			"byteLength":272,
			"byteOffset":41176
		},
		{
			"buffer":0,
			"byteLength":8,
			"byteOffset":41448
		},
		{
			"buffer":0,
			"byteLength":24,
			"byteOffset":41456
		},
		{
			"buffer":0,
			"byteLength":168,
			"byteOffset":41480
		},
		{
			"buffer":0,
			"byteLength":504,
			"byteOffset":41648
		},
		{
			"buffer":0,
			"byteLength":8,
			"byteOffset":42152
		},
		{
			"buffer":0,
			"byteLength":32,
			"byteOffset":42160
		},
		{
			"buffer":0,
			"byteLength":24,
			"byteOffset":42192
		}
	],
	"samplers":[
		{
			"magFilter":9729,
			"minFilter":9987
		}
	],
	"buffers":[
		{
			"byteLength":42216,
			"uri":"pencil.bin"
		}
	]
}
