{
	"asset":{
		"generator":"Khronos glTF Blender I/O v4.3.47",
		"version":"2.0"
	},
	"scene":0,
	"scenes":[
		{
			"name":"Scene",
			"nodes":[
				9
			]
		}
	],
	"nodes":[
		{
			"mesh":0,
			"name":"Cube",
			"scale":[
				1,
				0.5423261523246765,
				2.105257987976074
			]
		},
		{
			"mesh":1,
			"name":"Cube.001",
			"scale":[
				1.2721590995788574,
				0.07797306776046753,
				0.1481296420097351
			],
			"translation":[
				0.05956057086586952,
				0,
				-1.1197773218154907
			]
		},
		{
			"mesh":1,
			"name":"Cube.002",
			"scale":[
				1.2721590995788574,
				0.07797306776046753,
				0.1481296420097351
			],
			"translation":[
				0.03970704972743988,
				0,
				1.1804403066635132
			]
		},
		{
			"mesh":2,
			"name":"Cube.003",
			"rotation":[
				0,
				0.3826834261417389,
				0,
				0.9238795638084412
			],
			"scale":[
				0.10135763883590698,
				0.08474099636077881,
				1.348585605621338
			],
			"translation":[
				-0.7082880139350891,
				-0.42789414525032043,
				-2.0185863971710205
			]
		},
		{
			"mesh":2,
			"name":"Cube.004",
			"rotation":[
				0,
				-0.3826834559440613,
				0,
				0.9238795042037964
			],
			"scale":[
				0.10135763883590698,
				0.08474099636077881,
				1.348585605621338
			],
			"translation":[
				0.710615336894989,
				-0.4275909960269928,
				-2.0185866355895996
			]
		},
		{
			"mesh":2,
			"name":"Cube.005",
			"rotation":[
				0,
				-0.9238796234130859,
				0,
				0.38268330693244934
			],
			"scale":[
				0.10135763138532639,
				0.08474099636077881,
				1.348585605621338
			],
			"translation":[
				0.710615336894989,
				-0.427590936422348,
				2.0890159606933594
			]
		},
		{
			"mesh":2,
			"name":"Cube.006",
			"rotation":[
				0,
				0.9238795638084412,
				0,
				0.3826834261417389
			],
			"scale":[
				0.10135763883590698,
				0.08474099636077881,
				1.348585605621338
			],
			"translation":[
				-0.7082880139350891,
				-0.42789414525032043,
				2.0866761207580566
			]
		},
		{
			"mesh":3,
			"name":"Cylinder",
			"rotation":[
				0.8009285926818848,
				0,
				0,
				0.5987600684165955
			],
			"scale":[
				-0.1556224673986435,
				-0.1556224673986435,
				-0.1556224673986435
			],
			"translation":[
				0,
				0,
				2.0227184295654297
			]
		},
		{
			"mesh":4,
			"name":"Cylinder.001",
			"rotation":[
				0.7071068286895752,
				0,
				0,
				0.7071067690849304
			],
			"scale":[
				0.03968904912471771,
				0.03968905285000801,
				0.03968905285000801
			],
			"translation":[
				0,
				0,
				2.1146414279937744
			]
		},
		{
			"children":[
				0,
				1,
				2,
				3,
				4,
				5,
				6,
				7,
				8
			],
			"name":"Empty",
			"rotation":[
				0.035769976675510406,
				-0.7062014937400818,
				0.035769976675510406,
				0.7062014937400818
			]
		}
	],
	"materials":[
		{
			"doubleSided":true,
			"name":"Material.001",
			"pbrMetallicRoughness":{
				"baseColorTexture":{
					"index":0
				},
				"metallicFactor":0,
				"roughnessFactor":0.5
			}
		},
		{
			"doubleSided":true,
			"name":"Material.002",
			"pbrMetallicRoughness":{
				"baseColorTexture":{
					"index":1
				},
				"metallicFactor":0,
				"roughnessFactor":0.5
			}
		}
	],
	"meshes":[
		{
			"name":"Cube.001",
			"primitives":[
				{
					"attributes":{
						"POSITION":0,
						"NORMAL":1,
						"TEXCOORD_0":2
					},
					"indices":3,
					"material":0
				}
			]
		},
		{
			"name":"Cube.002",
			"primitives":[
				{
					"attributes":{
						"POSITION":4,
						"NORMAL":5,
						"TEXCOORD_0":6
					},
					"indices":7,
					"material":0
				}
			]
		},
		{
			"name":"Cube.006",
			"primitives":[
				{
					"attributes":{
						"POSITION":8,
						"NORMAL":9,
						"TEXCOORD_0":10
					},
					"indices":11,
					"material":0
				}
			]
		},
		{
			"name":"Cylinder",
			"primitives":[
				{
					"attributes":{
						"POSITION":12,
						"NORMAL":13,
						"TEXCOORD_0":14
					},
					"indices":15,
					"material":0
				}
			]
		},
		{
			"name":"Cylinder.001",
			"primitives":[
				{
					"attributes":{
						"POSITION":16,
						"NORMAL":17,
						"TEXCOORD_0":18
					},
					"indices":19,
					"material":1
				}
			]
		}
	],
	"textures":[
		{
			"sampler":0,
			"source":0
		},
		{
			"sampler":0,
			"source":0
		}
	],
	"images":[
		{
			"mimeType":"image/png",
			"name":"palette",
			"uri":"palette.png"
		}
	],
	"accessors":[
		{
			"bufferView":0,
			"componentType":5126,
			"count":546,
			"max":[
				1,
				1,
				1.3097028732299805
			],
			"min":[
				-1,
				-1,
				-1
			],
			"type":"VEC3"
		},
		{
			"bufferView":1,
			"componentType":5126,
			"count":546,
			"type":"VEC3"
		},
		{
			"bufferView":2,
			"componentType":5126,
			"count":546,
			"type":"VEC2"
		},
		{
			"bufferView":3,
			"componentType":5123,
			"count":864,
			"type":"SCALAR"
		},
		{
			"bufferView":4,
			"componentType":5126,
			"count":1699,
			"max":[
				0.9999999403953552,
				0.9999999403953552,
				1.4911084175109863
			],
			"min":[
				-1.1320056915283203,
				-0.9999998807907104,
				-1.490377426147461
			],
			"type":"VEC3"
		},
		{
			"bufferView":5,
			"componentType":5126,
			"count":1699,
			"type":"VEC3"
		},
		{
			"bufferView":6,
			"componentType":5126,
			"count":1699,
			"type":"VEC2"
		},
		{
			"bufferView":7,
			"componentType":5123,
			"count":2550,
			"type":"SCALAR"
		},
		{
			"bufferView":8,
			"componentType":5126,
			"count":1364,
			"max":[
				3.8899354934692383,
				8.936145782470703,
				1
			],
			"min":[
				-3.839974880218506,
				-1,
				-1.2578587532043457
			],
			"type":"VEC3"
		},
		{
			"bufferView":9,
			"componentType":5126,
			"count":1364,
			"type":"VEC3"
		},
		{
			"bufferView":10,
			"componentType":5126,
			"count":1364,
			"type":"VEC2"
		},
		{
			"bufferView":11,
			"componentType":5123,
			"count":2244,
			"type":"SCALAR"
		},
		{
			"bufferView":12,
			"componentType":5126,
			"count":416,
			"max":[
				1,
				1,
				1
			],
			"min":[
				-1,
				-1,
				-1
			],
			"type":"VEC3"
		},
		{
			"bufferView":13,
			"componentType":5126,
			"count":416,
			"type":"VEC3"
		},
		{
			"bufferView":14,
			"componentType":5126,
			"count":416,
			"type":"VEC2"
		},
		{
			"bufferView":15,
			"componentType":5123,
			"count":1716,
			"type":"SCALAR"
		},
		{
			"bufferView":16,
			"componentType":5126,
			"count":192,
			"max":[
				1,
				1,
				1
			],
			"min":[
				-1,
				-1,
				-1
			],
			"type":"VEC3"
		},
		{
			"bufferView":17,
			"componentType":5126,
			"count":192,
			"type":"VEC3"
		},
		{
			"bufferView":18,
			"componentType":5126,
			"count":192,
			"type":"VEC2"
		},
		{
			"bufferView":19,
			"componentType":5123,
			"count":372,
			"type":"SCALAR"
		}
	],
	"bufferViews":[
		{
			"buffer":0,
			"byteLength":6552,
			"byteOffset":0,
			"target":34962
		},
		{
			"buffer":0,
			"byteLength":6552,
			"byteOffset":6552,
			"target":34962
		},
		{
			"buffer":0,
			"byteLength":4368,
			"byteOffset":13104,
			"target":34962
		},
		{
			"buffer":0,
			"byteLength":1728,
			"byteOffset":17472,
			"target":34963
		},
		{
			"buffer":0,
			"byteLength":20388,
			"byteOffset":19200,
			"target":34962
		},
		{
			"buffer":0,
			"byteLength":20388,
			"byteOffset":39588,
			"target":34962
		},
		{
			"buffer":0,
			"byteLength":13592,
			"byteOffset":59976,
			"target":34962
		},
		{
			"buffer":0,
			"byteLength":5100,
			"byteOffset":73568,
			"target":34963
		},
		{
			"buffer":0,
			"byteLength":16368,
			"byteOffset":78668,
			"target":34962
		},
		{
			"buffer":0,
			"byteLength":16368,
			"byteOffset":95036,
			"target":34962
		},
		{
			"buffer":0,
			"byteLength":10912,
			"byteOffset":111404,
			"target":34962
		},
		{
			"buffer":0,
			"byteLength":4488,
			"byteOffset":122316,
			"target":34963
		},
		{
			"buffer":0,
			"byteLength":4992,
			"byteOffset":126804,
			"target":34962
		},
		{
			"buffer":0,
			"byteLength":4992,
			"byteOffset":131796,
			"target":34962
		},
		{
			"buffer":0,
			"byteLength":3328,
			"byteOffset":136788,
			"target":34962
		},
		{
			"buffer":0,
			"byteLength":3432,
			"byteOffset":140116,
			"target":34963
		},
		{
			"buffer":0,
			"byteLength":2304,
			"byteOffset":143548,
			"target":34962
		},
		{
			"buffer":0,
			"byteLength":2304,
			"byteOffset":145852,
			"target":34962
		},
		{
			"buffer":0,
			"byteLength":1536,
			"byteOffset":148156,
			"target":34962
		},
		{
			"buffer":0,
			"byteLength":744,
			"byteOffset":149692,
			"target":34963
		}
	],
	"samplers":[
		{
			"magFilter":9729,
			"minFilter":9987
		}
	],
	"buffers":[
		{
			"byteLength":150436,
			"uri":"drone.bin"
		}
	]
}
