{
	"asset":{
		"generator":"Khronos glTF Blender I/O v4.3.47",
		"version":"2.0"
	},
	"scene":0,
	"scenes":[
		{
			"name":"Scene",
			"nodes":[
				10,
				12
			]
		}
	],
	"nodes":[
		{
			"name":"Bone.005",
			"rotation":[
				-0.07125923782587051,
				-0.10094553232192993,
				0.24248163402080536,
				0.96225506067276
			],
			"scale":[
				1.0000001192092896,
				0.9999999403953552,
				1
			],
			"translation":[
				2.3283064365386963e-08,
				0.692241907119751,
				-1.0244548320770264e-08
			]
		},
		{
			"children":[
				0
			],
			"name":"Bone.004",
			"rotation":[
				-0.26939457654953003,
				0.009379731491208076,
				-0.2702384889125824,
				0.924288809299469
			],
			"translation":[
				-5.587935447692871e-09,
				0.6870143413543701,
				-1.862645149230957e-08
			]
		},
		{
			"children":[
				1
			],
			"name":"Bone.003",
			"rotation":[
				0.12982648611068726,
				0.060699302703142166,
				0.41792693734169006,
				0.8971052169799805
			],
			"scale":[
				1.0000001192092896,
				1,
				1.0000001192092896
			],
			"translation":[
				-4.330649971961975e-08,
				0.3490733504295349,
				-6.071047664590878e-09
			]
		},
		{
			"children":[
				2
			],
			"name":"Bone.002",
			"rotation":[
				-8.029286391320056e-08,
				-5.774130329427862e-08,
				-0.4291428327560425,
				0.9032366275787354
			],
			"scale":[
				1.0000001192092896,
				1.0000001192092896,
				1
			],
			"translation":[
				-2.0372681319713593e-10,
				0.9220916032791138,
				-2.3283064365386963e-10
			]
		},
		{
			"name":"Bone.009",
			"rotation":[
				-0.07082019746303558,
				0.10061187297105789,
				-0.23902356624603271,
				0.9631871581077576
			],
			"scale":[
				0.9999999403953552,
				1,
				1
			],
			"translation":[
				4.470348358154297e-08,
				0.6545292735099792,
				1.862645149230957e-08
			]
		},
		{
			"children":[
				4
			],
			"name":"Bone.008",
			"rotation":[
				-0.2633901536464691,
				-0.012835100293159485,
				0.2810681462287903,
				0.9227467775344849
			],
			"translation":[
				-5.587935447692871e-09,
				0.6778852939605713,
				-1.4901161193847656e-08
			]
		},
		{
			"children":[
				5
			],
			"name":"Bone.007",
			"rotation":[
				0.12120334804058075,
				-0.05878610536456108,
				-0.43595561385154724,
				0.8898295760154724
			],
			"scale":[
				1.0000001192092896,
				1,
				1.0000001192092896
			],
			"translation":[
				7.776543498039246e-08,
				0.3554893136024475,
				-6.389086593117099e-09
			]
		},
		{
			"children":[
				6
			],
			"name":"Bone.006",
			"rotation":[
				-1.1806003641368079e-07,
				1.5797768071479368e-07,
				0.4192454516887665,
				0.9078729748725891
			],
			"scale":[
				1.0000001192092896,
				1,
				1
			],
			"translation":[
				-2.0372681319713593e-10,
				0.9220916032791138,
				-2.3283064365386963e-10
			]
		},
		{
			"children":[
				3,
				7
			],
			"name":"Bone.001",
			"rotation":[
				-1,
				0,
				3.725291186640334e-09,
				2.980232949312267e-08
			],
			"scale":[
				0.9999999403953552,
				0.9999999403953552,
				0.9999998211860657
			],
			"translation":[
				-0.01948864571750164,
				1.7030915021896362,
				-0.008893747813999653
			]
		},
		{
			"name":"neutral_bone",
			"rotation":[
				-0.7071067690849304,
				0,
				0,
				0.7071067690849304
			]
		},
		{
			"children":[
				8,
				9
			],
			"name":"Armature",
			"rotation":[
				0,
				-0.649448037147522,
				0,
				0.7604060173034668
			],
			"scale":[
				2.0432519912719727,
				2.0432517528533936,
				2.0432519912719727
			],
			"translation":[
				-0.008727366104722023,
				1.7428139448165894,
				0.031406354159116745
			]
		},
		{
			"mesh":0,
			"name":"Sphere.002",
			"skin":0
		},
		{
			"children":[
				11
			],
			"name":"Empty",
			"scale":[
				2.0432517528533936,
				2.0432517528533936,
				2.0432517528533936
			],
			"translation":[
				0.0029918127693235874,
				-0.3304567337036133,
				-0.010766357183456421
			]
		}
	],
	"animations":[
		{
			"channels":[
				{
					"sampler":0,
					"target":{
						"node":8,
						"path":"translation"
					}
				},
				{
					"sampler":1,
					"target":{
						"node":8,
						"path":"rotation"
					}
				},
				{
					"sampler":2,
					"target":{
						"node":8,
						"path":"scale"
					}
				},
				{
					"sampler":3,
					"target":{
						"node":3,
						"path":"translation"
					}
				},
				{
					"sampler":4,
					"target":{
						"node":3,
						"path":"rotation"
					}
				},
				{
					"sampler":5,
					"target":{
						"node":3,
						"path":"scale"
					}
				},
				{
					"sampler":6,
					"target":{
						"node":2,
						"path":"translation"
					}
				},
				{
					"sampler":7,
					"target":{
						"node":2,
						"path":"rotation"
					}
				},
				{
					"sampler":8,
					"target":{
						"node":2,
						"path":"scale"
					}
				},
				{
					"sampler":9,
					"target":{
						"node":1,
						"path":"translation"
					}
				},
				{
					"sampler":10,
					"target":{
						"node":1,
						"path":"rotation"
					}
				},
				{
					"sampler":11,
					"target":{
						"node":1,
						"path":"scale"
					}
				},
				{
					"sampler":12,
					"target":{
						"node":0,
						"path":"translation"
					}
				},
				{
					"sampler":13,
					"target":{
						"node":0,
						"path":"rotation"
					}
				},
				{
					"sampler":14,
					"target":{
						"node":0,
						"path":"scale"
					}
				},
				{
					"sampler":15,
					"target":{
						"node":7,
						"path":"translation"
					}
				},
				{
					"sampler":16,
					"target":{
						"node":7,
						"path":"rotation"
					}
				},
				{
					"sampler":17,
					"target":{
						"node":7,
						"path":"scale"
					}
				},
				{
					"sampler":18,
					"target":{
						"node":6,
						"path":"translation"
					}
				},
				{
					"sampler":19,
					"target":{
						"node":6,
						"path":"rotation"
					}
				},
				{
					"sampler":20,
					"target":{
						"node":6,
						"path":"scale"
					}
				},
				{
					"sampler":21,
					"target":{
						"node":5,
						"path":"translation"
					}
				},
				{
					"sampler":22,
					"target":{
						"node":5,
						"path":"rotation"
					}
				},
				{
					"sampler":23,
					"target":{
						"node":5,
						"path":"scale"
					}
				},
				{
					"sampler":24,
					"target":{
						"node":4,
						"path":"translation"
					}
				},
				{
					"sampler":25,
					"target":{
						"node":4,
						"path":"rotation"
					}
				},
				{
					"sampler":26,
					"target":{
						"node":4,
						"path":"scale"
					}
				}
			],
			"name":"Walk",
			"samplers":[
				{
					"input":7,
					"interpolation":"STEP",
					"output":8
				},
				{
					"input":7,
					"interpolation":"STEP",
					"output":9
				},
				{
					"input":7,
					"interpolation":"STEP",
					"output":10
				},
				{
					"input":7,
					"interpolation":"STEP",
					"output":11
				},
				{
					"input":7,
					"interpolation":"STEP",
					"output":12
				},
				{
					"input":7,
					"interpolation":"STEP",
					"output":13
				},
				{
					"input":7,
					"interpolation":"STEP",
					"output":14
				},
				{
					"input":15,
					"interpolation":"LINEAR",
					"output":16
				},
				{
					"input":7,
					"interpolation":"STEP",
					"output":17
				},
				{
					"input":7,
					"interpolation":"STEP",
					"output":18
				},
				{
					"input":15,
					"interpolation":"LINEAR",
					"output":19
				},
				{
					"input":7,
					"interpolation":"STEP",
					"output":20
				},
				{
					"input":7,
					"interpolation":"STEP",
					"output":21
				},
				{
					"input":15,
					"interpolation":"LINEAR",
					"output":22
				},
				{
					"input":7,
					"interpolation":"STEP",
					"output":23
				},
				{
					"input":7,
					"interpolation":"STEP",
					"output":24
				},
				{
					"input":7,
					"interpolation":"STEP",
					"output":25
				},
				{
					"input":7,
					"interpolation":"STEP",
					"output":26
				},
				{
					"input":7,
					"interpolation":"STEP",
					"output":27
				},
				{
					"input":15,
					"interpolation":"LINEAR",
					"output":28
				},
				{
					"input":7,
					"interpolation":"STEP",
					"output":29
				},
				{
					"input":7,
					"interpolation":"STEP",
					"output":30
				},
				{
					"input":15,
					"interpolation":"LINEAR",
					"output":31
				},
				{
					"input":7,
					"interpolation":"STEP",
					"output":32
				},
				{
					"input":7,
					"interpolation":"STEP",
					"output":33
				},
				{
					"input":15,
					"interpolation":"LINEAR",
					"output":34
				},
				{
					"input":7,
					"interpolation":"STEP",
					"output":35
				}
			]
		}
	],
	"materials":[
		{
			"doubleSided":true,
			"name":"Material.001",
			"pbrMetallicRoughness":{
				"baseColorTexture":{
					"index":0
				},
				"metallicFactor":0,
				"roughnessFactor":0.5
			}
		}
	],
	"meshes":[
		{
			"name":"Sphere.002",
			"primitives":[
				{
					"attributes":{
						"POSITION":0,
						"NORMAL":1,
						"TEXCOORD_0":2,
						"JOINTS_0":3,
						"WEIGHTS_0":4
					},
					"indices":5,
					"material":0
				}
			]
		}
	],
	"textures":[
		{
			"sampler":0,
			"source":0
		}
	],
	"images":[
		{
			"mimeType":"image/png",
			"name":"palette",
			"uri":"palette.png"
		}
	],
	"skins":[
		{
			"inverseBindMatrices":6,
			"joints":[
				8,
				3,
				2,
				1,
				0,
				7,
				6,
				5,
				4,
				9
			],
			"name":"Armature"
		}
	],
	"accessors":[
		{
			"bufferView":0,
			"componentType":5126,
			"count":3818,
			"max":[
				1.855301856994629,
				9.153226852416992,
				2.0324277877807617
			],
			"min":[
				-5.859657287597656,
				-0.8171459436416626,
				-2.0544862747192383
			],
			"type":"VEC3"
		},
		{
			"bufferView":1,
			"componentType":5126,
			"count":3818,
			"type":"VEC3"
		},
		{
			"bufferView":2,
			"componentType":5126,
			"count":3818,
			"type":"VEC2"
		},
		{
			"bufferView":3,
			"componentType":5121,
			"count":3818,
			"type":"VEC4"
		},
		{
			"bufferView":4,
			"componentType":5126,
			"count":3818,
			"type":"VEC4"
		},
		{
			"bufferView":5,
			"componentType":5123,
			"count":5802,
			"type":"SCALAR"
		},
		{
			"bufferView":6,
			"componentType":5126,
			"count":10,
			"type":"MAT4"
		},
		{
			"bufferView":7,
			"componentType":5126,
			"count":2,
			"max":[
				3.3333333333333335
			],
			"min":[
				0.041666666666666664
			],
			"type":"SCALAR"
		},
		{
			"bufferView":8,
			"componentType":5126,
			"count":2,
			"type":"VEC3"
		},
		{
			"bufferView":9,
			"componentType":5126,
			"count":2,
			"type":"VEC4"
		},
		{
			"bufferView":10,
			"componentType":5126,
			"count":2,
			"type":"VEC3"
		},
		{
			"bufferView":11,
			"componentType":5126,
			"count":2,
			"type":"VEC3"
		},
		{
			"bufferView":12,
			"componentType":5126,
			"count":2,
			"type":"VEC4"
		},
		{
			"bufferView":13,
			"componentType":5126,
			"count":2,
			"type":"VEC3"
		},
		{
			"bufferView":14,
			"componentType":5126,
			"count":2,
			"type":"VEC3"
		},
		{
			"bufferView":15,
			"componentType":5126,
			"count":80,
			"max":[
				3.3333333333333335
			],
			"min":[
				0.041666666666666664
			],
			"type":"SCALAR"
		},
		{
			"bufferView":16,
			"componentType":5126,
			"count":80,
			"type":"VEC4"
		},
		{
			"bufferView":17,
			"componentType":5126,
			"count":2,
			"type":"VEC3"
		},
		{
			"bufferView":18,
			"componentType":5126,
			"count":2,
			"type":"VEC3"
		},
		{
			"bufferView":19,
			"componentType":5126,
			"count":80,
			"type":"VEC4"
		},
		{
			"bufferView":20,
			"componentType":5126,
			"count":2,
			"type":"VEC3"
		},
		{
			"bufferView":21,
			"componentType":5126,
			"count":2,
			"type":"VEC3"
		},
		{
			"bufferView":22,
			"componentType":5126,
			"count":80,
			"type":"VEC4"
		},
		{
			"bufferView":23,
			"componentType":5126,
			"count":2,
			"type":"VEC3"
		},
		{
			"bufferView":24,
			"componentType":5126,
			"count":2,
			"type":"VEC3"
		},
		{
			"bufferView":25,
			"componentType":5126,
			"count":2,
			"type":"VEC4"
		},
		{
			"bufferView":26,
			"componentType":5126,
			"count":2,
			"type":"VEC3"
		},
		{
			"bufferView":27,
			"componentType":5126,
			"count":2,
			"type":"VEC3"
		},
		{
			"bufferView":28,
			"componentType":5126,
			"count":80,
			"type":"VEC4"
		},
		{
			"bufferView":29,
			"componentType":5126,
			"count":2,
			"type":"VEC3"
		},
		{
			"bufferView":30,
			"componentType":5126,
			"count":2,
			"type":"VEC3"
		},
		{
			"bufferView":31,
			"componentType":5126,
			"count":80,
			"type":"VEC4"
		},
		{
			"bufferView":32,
			"componentType":5126,
			"count":2,
			"type":"VEC3"
		},
		{
			"bufferView":33,
			"componentType":5126,
			"count":2,
			"type":"VEC3"
		},
		{
			"bufferView":34,
			"componentType":5126,
			"count":80,
			"type":"VEC4"
		},
		{
			"bufferView":35,
			"componentType":5126,
			"count":2,
			"type":"VEC3"
		}
	],
	"bufferViews":[
		{
			"buffer":0,
			"byteLength":45816,
			"byteOffset":0,
			"target":34962
		},
		{
			"buffer":0,
			"byteLength":45816,
			"byteOffset":45816,
			"target":34962
		},
		{
			"buffer":0,
			"byteLength":30544,
			"byteOffset":91632,
			"target":34962
		},
		{
			"buffer":0,
			"byteLength":15272,
			"byteOffset":122176,
			"target":34962
		},
		{
			"buffer":0,
			"byteLength":61088,
			"byteOffset":137448,
			"target":34962
		},
		{
			"buffer":0,
			"byteLength":11604,
			"byteOffset":198536,
			"target":34963
		},
		{
			"buffer":0,
			"byteLength":640,
			"byteOffset":210140
		},
		{
			"buffer":0,
			"byteLength":8,
			"byteOffset":210780
		},
		{
			"buffer":0,
			"byteLength":24,
			"byteOffset":210788
		},
		{
			"buffer":0,
			"byteLength":32,
			"byteOffset":210812
		},
		{
			"buffer":0,
			"byteLength":24,
			"byteOffset":210844
		},
		{
			"buffer":0,
			"byteLength":24,
			"byteOffset":210868
		},
		{
			"buffer":0,
			"byteLength":32,
			"byteOffset":210892
		},
		{
			"buffer":0,
			"byteLength":24,
			"byteOffset":210924
		},
		{
			"buffer":0,
			"byteLength":24,
			"byteOffset":210948
		},
		{
			"buffer":0,
			"byteLength":320,
			"byteOffset":210972
		},
		{
			"buffer":0,
			"byteLength":1280,
			"byteOffset":211292
		},
		{
			"buffer":0,
			"byteLength":24,
			"byteOffset":212572
		},
		{
			"buffer":0,
			"byteLength":24,
			"byteOffset":212596
		},
		{
			"buffer":0,
			"byteLength":1280,
			"byteOffset":212620
		},
		{
			"buffer":0,
			"byteLength":24,
			"byteOffset":213900
		},
		{
			"buffer":0,
			"byteLength":24,
			"byteOffset":213924
		},
		{
			"buffer":0,
			"byteLength":1280,
			"byteOffset":213948
		},
		{
			"buffer":0,
			"byteLength":24,
			"byteOffset":215228
		},
		{
			"buffer":0,
			"byteLength":24,
			"byteOffset":215252
		},
		{
			"buffer":0,
			"byteLength":32,
			"byteOffset":215276
		},
		{
			"buffer":0,
			"byteLength":24,
			"byteOffset":215308
		},
		{
			"buffer":0,
			"byteLength":24,
			"byteOffset":215332
		},
		{
			"buffer":0,
			"byteLength":1280,
			"byteOffset":215356
		},
		{
			"buffer":0,
			"byteLength":24,
			"byteOffset":216636
		},
		{
			"buffer":0,
			"byteLength":24,
			"byteOffset":216660
		},
		{
			"buffer":0,
			"byteLength":1280,
			"byteOffset":216684
		},
		{
			"buffer":0,
			"byteLength":24,
			"byteOffset":217964
		},
		{
			"buffer":0,
			"byteLength":24,
			"byteOffset":217988
		},
		{
			"buffer":0,
			"byteLength":1280,
			"byteOffset":218012
		},
		{
			"buffer":0,
			"byteLength":24,
			"byteOffset":219292
		}
	],
	"samplers":[
		{
			"magFilter":9729,
			"minFilter":9987
		}
	],
	"buffers":[
		{
			"byteLength":219316,
			"uri":"bipod.bin"
		}
	]
}
