{
	"asset":{
		"generator":"Khronos glTF Blender I/O v4.3.47",
		"version":"2.0"
	},
	"scene":0,
	"scenes":[
		{
			"name":"Scene",
			"nodes":[
				10,
				11
			]
		}
	],
	"nodes":[
		{
			"name":"Bone.005",
			"rotation":[
				-0.07125924527645111,
				-0.10094553977251053,
				0.24248164892196655,
				0.96225506067276
			],
			"scale":[
				1.0000001192092896,
				0.9999999403953552,
				1
			],
			"translation":[
				-8.009374141693115e-08,
				0.6922422051429749,
				5.029141902923584e-08
			]
		},
		{
			"children":[
				0
			],
			"name":"Bone.004",
			"rotation":[
				-0.2693946063518524,
				0.009379739873111248,
				-0.2702385187149048,
				0.924288809299469
			],
			"scale":[
				0.9999999403953552,
				0.9999999403953552,
				0.9999999403953552
			],
			"translation":[
				-2.421438694000244e-08,
				0.6870140433311462,
				-5.960464477539063e-08
			]
		},
		{
			"children":[
				1
			],
			"name":"Bone.003",
			"rotation":[
				0.12982648611068726,
				0.06069931015372276,
				0.41792693734169006,
				0.8971052169799805
			],
			"scale":[
				1.0000001192092896,
				0.9999998807907104,
				1
			],
			"translation":[
				1.9441358745098114e-07,
				0.3490733802318573,
				-1.3619313676827005e-08
			]
		},
		{
			"children":[
				2
			],
			"name":"Bone.002",
			"rotation":[
				-7.410628910520245e-08,
				-6.186568413113491e-08,
				-0.4291428327560425,
				0.9032366275787354
			],
			"scale":[
				1,
				1,
				1.0000001192092896
			],
			"translation":[
				-9.89530235528946e-10,
				0.9220917224884033,
				-2.3283064365386963e-10
			]
		},
		{
			"name":"Bone.009",
			"rotation":[
				-0.07082021981477737,
				0.1006118655204773,
				-0.23902356624603271,
				0.9631871581077576
			],
			"translation":[
				-1.126900315284729e-07,
				0.6545292735099792,
				5.960464477539063e-08
			]
		},
		{
			"children":[
				4
			],
			"name":"Bone.008",
			"rotation":[
				-0.2633902132511139,
				-0.012835088185966015,
				0.28106817603111267,
				0.9227467775344849
			],
			"translation":[
				-2.421438694000244e-08,
				0.6778854131698608,
				-9.685754776000977e-08
			]
		},
		{
			"children":[
				5
			],
			"name":"Bone.007",
			"rotation":[
				0.12120334804058075,
				-0.058786116540431976,
				-0.43595561385154724,
				0.8898295760154724
			],
			"scale":[
				1.0000001192092896,
				1,
				1
			],
			"translation":[
				-3.166496753692627e-08,
				0.35548898577690125,
				-1.6540298020117916e-09
			]
		},
		{
			"children":[
				6
			],
			"name":"Bone.006",
			"rotation":[
				-1.201116930360513e-07,
				1.579776949256484e-07,
				0.41924548149108887,
				0.9078729748725891
			],
			"scale":[
				1,
				0.9999999403953552,
				1
			],
			"translation":[
				-9.89530235528946e-10,
				0.9220917224884033,
				-2.3283064365386963e-10
			]
		},
		{
			"children":[
				3,
				7
			],
			"name":"Bone.001",
			"rotation":[
				-1,
				0,
				0,
				2.980232949312267e-08
			],
			"scale":[
				1,
				1,
				0.9999999403953552
			],
			"translation":[
				-0.01948864944279194,
				1.7030918598175049,
				-0.008893748745322227
			]
		},
		{
			"name":"neutral_bone",
			"rotation":[
				-0.7071067690849304,
				0,
				0,
				0.7071067690849304
			]
		},
		{
			"children":[
				8,
				9
			],
			"name":"Armature",
			"rotation":[
				0,
				-0.6494479775428772,
				0,
				0.7604060173034668
			],
			"scale":[
				0.965578019618988,
				0.9655779004096985,
				0.965578019618988
			],
			"translation":[
				-0.008727366104722023,
				1.7428139448165894,
				0.031406354159116745
			]
		},
		{
			"mesh":0,
			"name":"Sphere.002",
			"skin":0
		}
	],
	"animations":[
		{
			"channels":[
				{
					"sampler":0,
					"target":{
						"node":8,
						"path":"translation"
					}
				},
				{
					"sampler":1,
					"target":{
						"node":8,
						"path":"rotation"
					}
				},
				{
					"sampler":2,
					"target":{
						"node":8,
						"path":"scale"
					}
				},
				{
					"sampler":3,
					"target":{
						"node":3,
						"path":"translation"
					}
				},
				{
					"sampler":4,
					"target":{
						"node":3,
						"path":"rotation"
					}
				},
				{
					"sampler":5,
					"target":{
						"node":3,
						"path":"scale"
					}
				},
				{
					"sampler":6,
					"target":{
						"node":2,
						"path":"translation"
					}
				},
				{
					"sampler":7,
					"target":{
						"node":2,
						"path":"rotation"
					}
				},
				{
					"sampler":8,
					"target":{
						"node":2,
						"path":"scale"
					}
				},
				{
					"sampler":9,
					"target":{
						"node":1,
						"path":"translation"
					}
				},
				{
					"sampler":10,
					"target":{
						"node":1,
						"path":"rotation"
					}
				},
				{
					"sampler":11,
					"target":{
						"node":1,
						"path":"scale"
					}
				},
				{
					"sampler":12,
					"target":{
						"node":0,
						"path":"translation"
					}
				},
				{
					"sampler":13,
					"target":{
						"node":0,
						"path":"rotation"
					}
				},
				{
					"sampler":14,
					"target":{
						"node":0,
						"path":"scale"
					}
				},
				{
					"sampler":15,
					"target":{
						"node":7,
						"path":"translation"
					}
				},
				{
					"sampler":16,
					"target":{
						"node":7,
						"path":"rotation"
					}
				},
				{
					"sampler":17,
					"target":{
						"node":7,
						"path":"scale"
					}
				},
				{
					"sampler":18,
					"target":{
						"node":6,
						"path":"translation"
					}
				},
				{
					"sampler":19,
					"target":{
						"node":6,
						"path":"rotation"
					}
				},
				{
					"sampler":20,
					"target":{
						"node":6,
						"path":"scale"
					}
				},
				{
					"sampler":21,
					"target":{
						"node":5,
						"path":"translation"
					}
				},
				{
					"sampler":22,
					"target":{
						"node":5,
						"path":"rotation"
					}
				},
				{
					"sampler":23,
					"target":{
						"node":5,
						"path":"scale"
					}
				},
				{
					"sampler":24,
					"target":{
						"node":4,
						"path":"translation"
					}
				},
				{
					"sampler":25,
					"target":{
						"node":4,
						"path":"rotation"
					}
				},
				{
					"sampler":26,
					"target":{
						"node":4,
						"path":"scale"
					}
				}
			],
			"name":"Walk",
			"samplers":[
				{
					"input":7,
					"interpolation":"STEP",
					"output":8
				},
				{
					"input":7,
					"interpolation":"STEP",
					"output":9
				},
				{
					"input":7,
					"interpolation":"STEP",
					"output":10
				},
				{
					"input":7,
					"interpolation":"STEP",
					"output":11
				},
				{
					"input":7,
					"interpolation":"STEP",
					"output":12
				},
				{
					"input":7,
					"interpolation":"STEP",
					"output":13
				},
				{
					"input":7,
					"interpolation":"STEP",
					"output":14
				},
				{
					"input":15,
					"interpolation":"LINEAR",
					"output":16
				},
				{
					"input":7,
					"interpolation":"STEP",
					"output":17
				},
				{
					"input":7,
					"interpolation":"STEP",
					"output":18
				},
				{
					"input":15,
					"interpolation":"LINEAR",
					"output":19
				},
				{
					"input":7,
					"interpolation":"STEP",
					"output":20
				},
				{
					"input":7,
					"interpolation":"STEP",
					"output":21
				},
				{
					"input":15,
					"interpolation":"LINEAR",
					"output":22
				},
				{
					"input":7,
					"interpolation":"STEP",
					"output":23
				},
				{
					"input":7,
					"interpolation":"STEP",
					"output":24
				},
				{
					"input":7,
					"interpolation":"STEP",
					"output":25
				},
				{
					"input":7,
					"interpolation":"STEP",
					"output":26
				},
				{
					"input":7,
					"interpolation":"STEP",
					"output":27
				},
				{
					"input":15,
					"interpolation":"LINEAR",
					"output":28
				},
				{
					"input":7,
					"interpolation":"STEP",
					"output":29
				},
				{
					"input":7,
					"interpolation":"STEP",
					"output":30
				},
				{
					"input":15,
					"interpolation":"LINEAR",
					"output":31
				},
				{
					"input":7,
					"interpolation":"STEP",
					"output":32
				},
				{
					"input":7,
					"interpolation":"STEP",
					"output":33
				},
				{
					"input":15,
					"interpolation":"LINEAR",
					"output":34
				},
				{
					"input":7,
					"interpolation":"STEP",
					"output":35
				}
			]
		}
	],
	"materials":[
		{
			"doubleSided":true,
			"name":"Material.001",
			"pbrMetallicRoughness":{
				"baseColorTexture":{
					"index":0
				},
				"metallicFactor":0,
				"roughnessFactor":0.5
			}
		}
	],
	"meshes":[
		{
			"name":"Sphere.002",
			"primitives":[
				{
					"attributes":{
						"POSITION":0,
						"NORMAL":1,
						"TEXCOORD_0":2,
						"JOINTS_0":3,
						"WEIGHTS_0":4
					},
					"indices":5,
					"material":0
				}
			]
		}
	],
	"textures":[
		{
			"sampler":0,
			"source":0
		}
	],
	"images":[
		{
			"mimeType":"image/png",
			"name":"palette",
			"uri":"palette.png"
		}
	],
	"skins":[
		{
			"inverseBindMatrices":6,
			"joints":[
				8,
				3,
				2,
				1,
				0,
				7,
				6,
				5,
				4,
				9
			],
			"name":"Armature"
		}
	],
	"accessors":[
		{
			"bufferView":0,
			"componentType":5126,
			"count":3818,
			"max":[
				0.9065501093864441,
				4.840298652648926,
				0.999971866607666
			],
			"min":[
				-2.869274139404297,
				-0.039360664784908295,
				-1.0002292394638062
			],
			"type":"VEC3"
		},
		{
			"bufferView":1,
			"componentType":5126,
			"count":3818,
			"type":"VEC3"
		},
		{
			"bufferView":2,
			"componentType":5126,
			"count":3818,
			"type":"VEC2"
		},
		{
			"bufferView":3,
			"componentType":5121,
			"count":3818,
			"type":"VEC4"
		},
		{
			"bufferView":4,
			"componentType":5126,
			"count":3818,
			"type":"VEC4"
		},
		{
			"bufferView":5,
			"componentType":5123,
			"count":5802,
			"type":"SCALAR"
		},
		{
			"bufferView":6,
			"componentType":5126,
			"count":10,
			"type":"MAT4"
		},
		{
			"bufferView":7,
			"componentType":5126,
			"count":2,
			"max":[
				3.3333333333333335
			],
			"min":[
				0.041666666666666664
			],
			"type":"SCALAR"
		},
		{
			"bufferView":8,
			"componentType":5126,
			"count":2,
			"type":"VEC3"
		},
		{
			"bufferView":9,
			"componentType":5126,
			"count":2,
			"type":"VEC4"
		},
		{
			"bufferView":10,
			"componentType":5126,
			"count":2,
			"type":"VEC3"
		},
		{
			"bufferView":11,
			"componentType":5126,
			"count":2,
			"type":"VEC3"
		},
		{
			"bufferView":12,
			"componentType":5126,
			"count":2,
			"type":"VEC4"
		},
		{
			"bufferView":13,
			"componentType":5126,
			"count":2,
			"type":"VEC3"
		},
		{
			"bufferView":14,
			"componentType":5126,
			"count":2,
			"type":"VEC3"
		},
		{
			"bufferView":15,
			"componentType":5126,
			"count":80,
			"max":[
				3.3333333333333335
			],
			"min":[
				0.041666666666666664
			],
			"type":"SCALAR"
		},
		{
			"bufferView":16,
			"componentType":5126,
			"count":80,
			"type":"VEC4"
		},
		{
			"bufferView":17,
			"componentType":5126,
			"count":2,
			"type":"VEC3"
		},
		{
			"bufferView":18,
			"componentType":5126,
			"count":2,
			"type":"VEC3"
		},
		{
			"bufferView":19,
			"componentType":5126,
			"count":80,
			"type":"VEC4"
		},
		{
			"bufferView":20,
			"componentType":5126,
			"count":2,
			"type":"VEC3"
		},
		{
			"bufferView":21,
			"componentType":5126,
			"count":2,
			"type":"VEC3"
		},
		{
			"bufferView":22,
			"componentType":5126,
			"count":80,
			"type":"VEC4"
		},
		{
			"bufferView":23,
			"componentType":5126,
			"count":2,
			"type":"VEC3"
		},
		{
			"bufferView":24,
			"componentType":5126,
			"count":2,
			"type":"VEC3"
		},
		{
			"bufferView":25,
			"componentType":5126,
			"count":2,
			"type":"VEC4"
		},
		{
			"bufferView":26,
			"componentType":5126,
			"count":2,
			"type":"VEC3"
		},
		{
			"bufferView":27,
			"componentType":5126,
			"count":2,
			"type":"VEC3"
		},
		{
			"bufferView":28,
			"componentType":5126,
			"count":80,
			"type":"VEC4"
		},
		{
			"bufferView":29,
			"componentType":5126,
			"count":2,
			"type":"VEC3"
		},
		{
			"bufferView":30,
			"componentType":5126,
			"count":2,
			"type":"VEC3"
		},
		{
			"bufferView":31,
			"componentType":5126,
			"count":80,
			"type":"VEC4"
		},
		{
			"bufferView":32,
			"componentType":5126,
			"count":2,
			"type":"VEC3"
		},
		{
			"bufferView":33,
			"componentType":5126,
			"count":2,
			"type":"VEC3"
		},
		{
			"bufferView":34,
			"componentType":5126,
			"count":80,
			"type":"VEC4"
		},
		{
			"bufferView":35,
			"componentType":5126,
			"count":2,
			"type":"VEC3"
		}
	],
	"bufferViews":[
		{
			"buffer":0,
			"byteLength":45816,
			"byteOffset":0,
			"target":34962
		},
		{
			"buffer":0,
			"byteLength":45816,
			"byteOffset":45816,
			"target":34962
		},
		{
			"buffer":0,
			"byteLength":30544,
			"byteOffset":91632,
			"target":34962
		},
		{
			"buffer":0,
			"byteLength":15272,
			"byteOffset":122176,
			"target":34962
		},
		{
			"buffer":0,
			"byteLength":61088,
			"byteOffset":137448,
			"target":34962
		},
		{
			"buffer":0,
			"byteLength":11604,
			"byteOffset":198536,
			"target":34963
		},
		{
			"buffer":0,
			"byteLength":640,
			"byteOffset":210140
		},
		{
			"buffer":0,
			"byteLength":8,
			"byteOffset":210780
		},
		{
			"buffer":0,
			"byteLength":24,
			"byteOffset":210788
		},
		{
			"buffer":0,
			"byteLength":32,
			"byteOffset":210812
		},
		{
			"buffer":0,
			"byteLength":24,
			"byteOffset":210844
		},
		{
			"buffer":0,
			"byteLength":24,
			"byteOffset":210868
		},
		{
			"buffer":0,
			"byteLength":32,
			"byteOffset":210892
		},
		{
			"buffer":0,
			"byteLength":24,
			"byteOffset":210924
		},
		{
			"buffer":0,
			"byteLength":24,
			"byteOffset":210948
		},
		{
			"buffer":0,
			"byteLength":320,
			"byteOffset":210972
		},
		{
			"buffer":0,
			"byteLength":1280,
			"byteOffset":211292
		},
		{
			"buffer":0,
			"byteLength":24,
			"byteOffset":212572
		},
		{
			"buffer":0,
			"byteLength":24,
			"byteOffset":212596
		},
		{
			"buffer":0,
			"byteLength":1280,
			"byteOffset":212620
		},
		{
			"buffer":0,
			"byteLength":24,
			"byteOffset":213900
		},
		{
			"buffer":0,
			"byteLength":24,
			"byteOffset":213924
		},
		{
			"buffer":0,
			"byteLength":1280,
			"byteOffset":213948
		},
		{
			"buffer":0,
			"byteLength":24,
			"byteOffset":215228
		},
		{
			"buffer":0,
			"byteLength":24,
			"byteOffset":215252
		},
		{
			"buffer":0,
			"byteLength":32,
			"byteOffset":215276
		},
		{
			"buffer":0,
			"byteLength":24,
			"byteOffset":215308
		},
		{
			"buffer":0,
			"byteLength":24,
			"byteOffset":215332
		},
		{
			"buffer":0,
			"byteLength":1280,
			"byteOffset":215356
		},
		{
			"buffer":0,
			"byteLength":24,
			"byteOffset":216636
		},
		{
			"buffer":0,
			"byteLength":24,
			"byteOffset":216660
		},
		{
			"buffer":0,
			"byteLength":1280,
			"byteOffset":216684
		},
		{
			"buffer":0,
			"byteLength":24,
			"byteOffset":217964
		},
		{
			"buffer":0,
			"byteLength":24,
			"byteOffset":217988
		},
		{
			"buffer":0,
			"byteLength":1280,
			"byteOffset":218012
		},
		{
			"buffer":0,
			"byteLength":24,
			"byteOffset":219292
		}
	],
	"samplers":[
		{
			"magFilter":9729,
			"minFilter":9987
		}
	],
	"buffers":[
		{
			"byteLength":219316,
			"uri":"bipod.bin"
		}
	]
}
