{
	"asset":{
		"generator":"Khronos glTF Blender I/O v4.3.47",
		"version":"2.0"
	},
	"scene":0,
	"scenes":[
		{
			"name":"Scene",
			"nodes":[
				2
			]
		}
	],
	"nodes":[
		{
			"mesh":0,
			"name":"Cube",
			"scale":[
				2.147739887237549,
				0.22590023279190063,
				2.147739887237549
			],
			"translation":[
				0,
				-1.1925491094589233,
				0
			]
		},
		{
			"children":[
				0
			],
			"mesh":1,
			"name":"Cylinder",
			"scale":[
				1.0009452104568481,
				6.227888107299805,
				1.0009452104568481
			],
			"translation":[
				0.025818435475230217,
				-6.756818771362305,
				-0.0023223338648676872
			]
		},
		{
			"children":[
				1
			],
			"mesh":2,
			"name":"Cube.002",
			"scale":[
				0.46516600251197815,
				0.7107918858528137,
				0.46516600251197815
			],
			"translation":[
				-0.012009859085083008,
				10.08178997039795,
				0.0010802708566188812
			]
		}
	],
	"materials":[
		{
			"doubleSided":true,
			"name":"Material.004",
			"pbrMetallicRoughness":{
				"baseColorTexture":{
					"index":0
				},
				"metallicFactor":0,
				"roughnessFactor":0.5
			}
		}
	],
	"meshes":[
		{
			"name":"Cube",
			"primitives":[
				{
					"attributes":{
						"POSITION":0,
						"NORMAL":1,
						"TEXCOORD_0":2
					},
					"indices":3,
					"material":0
				}
			]
		},
		{
			"name":"Cylinder",
			"primitives":[
				{
					"attributes":{
						"POSITION":4,
						"NORMAL":5,
						"TEXCOORD_0":6
					},
					"indices":7,
					"material":0
				}
			]
		},
		{
			"name":"Cube.002",
			"primitives":[
				{
					"attributes":{
						"POSITION":8,
						"NORMAL":9,
						"TEXCOORD_0":10
					},
					"indices":11,
					"material":0
				}
			]
		}
	],
	"textures":[
		{
			"sampler":0,
			"source":0
		}
	],
	"images":[
		{
			"mimeType":"image/png",
			"name":"palette",
			"uri":"palette.png"
		}
	],
	"accessors":[
		{
			"bufferView":0,
			"componentType":5126,
			"count":24,
			"max":[
				1.1098977327346802,
				1,
				1.1098977327346802
			],
			"min":[
				-1.1098977327346802,
				-1,
				-1.1098977327346802
			],
			"type":"VEC3"
		},
		{
			"bufferView":1,
			"componentType":5126,
			"count":24,
			"type":"VEC3"
		},
		{
			"bufferView":2,
			"componentType":5126,
			"count":24,
			"type":"VEC2"
		},
		{
			"bufferView":3,
			"componentType":5123,
			"count":36,
			"type":"SCALAR"
		},
		{
			"bufferView":4,
			"componentType":5126,
			"count":294,
			"max":[
				1.4358497858047485,
				1.0288541316986084,
				1.657976508140564
			],
			"min":[
				-1.4358497858047485,
				-1,
				-1.657976508140564
			],
			"type":"VEC3"
		},
		{
			"bufferView":5,
			"componentType":5126,
			"count":294,
			"type":"VEC3"
		},
		{
			"bufferView":6,
			"componentType":5126,
			"count":294,
			"type":"VEC2"
		},
		{
			"bufferView":7,
			"componentType":5123,
			"count":528,
			"type":"SCALAR"
		},
		{
			"bufferView":8,
			"componentType":5126,
			"count":280,
			"max":[
				2.3771445751190186,
				4.339931488037109,
				2.3771445751190186
			],
			"min":[
				-2.3771445751190186,
				-1,
				-2.3771445751190186
			],
			"type":"VEC3"
		},
		{
			"bufferView":9,
			"componentType":5126,
			"count":280,
			"type":"VEC3"
		},
		{
			"bufferView":10,
			"componentType":5126,
			"count":280,
			"type":"VEC2"
		},
		{
			"bufferView":11,
			"componentType":5123,
			"count":780,
			"type":"SCALAR"
		}
	],
	"bufferViews":[
		{
			"buffer":0,
			"byteLength":288,
			"byteOffset":0,
			"target":34962
		},
		{
			"buffer":0,
			"byteLength":288,
			"byteOffset":288,
			"target":34962
		},
		{
			"buffer":0,
			"byteLength":192,
			"byteOffset":576,
			"target":34962
		},
		{
			"buffer":0,
			"byteLength":72,
			"byteOffset":768,
			"target":34963
		},
		{
			"buffer":0,
			"byteLength":3528,
			"byteOffset":840,
			"target":34962
		},
		{
			"buffer":0,
			"byteLength":3528,
			"byteOffset":4368,
			"target":34962
		},
		{
			"buffer":0,
			"byteLength":2352,
			"byteOffset":7896,
			"target":34962
		},
		{
			"buffer":0,
			"byteLength":1056,
			"byteOffset":10248,
			"target":34963
		},
		{
			"buffer":0,
			"byteLength":3360,
			"byteOffset":11304,
			"target":34962
		},
		{
			"buffer":0,
			"byteLength":3360,
			"byteOffset":14664,
			"target":34962
		},
		{
			"buffer":0,
			"byteLength":2240,
			"byteOffset":18024,
			"target":34962
		},
		{
			"buffer":0,
			"byteLength":1560,
			"byteOffset":20264,
			"target":34963
		}
	],
	"samplers":[
		{
			"magFilter":9729,
			"minFilter":9987
		}
	],
	"buffers":[
		{
			"byteLength":21824,
			"uri":"Lamp.bin"
		}
	]
}
