{
	"asset":{
		"generator":"Khronos glTF Blender I/O v4.3.47",
		"version":"2.0"
	},
	"scene":0,
	"scenes":[
		{
			"name":"Scene",
			"nodes":[
				3
			]
		}
	],
	"nodes":[
		{
			"mesh":0,
			"name":"Cylinder.001",
			"translation":[
				0.3685646057128906,
				-0.8216043710708618,
				-1.139190912246704
			]
		},
		{
			"mesh":1,
			"name":"Cylinder.002",
			"rotation":[
				0,
				0.9266595244407654,
				0,
				0.3759017288684845
			],
			"translation":[
				-0.362260103225708,
				-0.8216043710708618,
				-1.1113498210906982
			]
		},
		{
			"children":[
				0,
				1
			],
			"mesh":2,
			"name":"Cylinder",
			"scale":[
				1,
				0.22073298692703247,
				1
			],
			"translation":[
				0,
				0.1782604455947876,
				0
			]
		},
		{
			"children":[
				2
			],
			"name":"Empty",
			"rotation":[
				0,
				0.7604060769081116,
				0,
				0.6494479179382324
			]
		}
	],
	"animations":[
		{
			"channels":[
				{
					"sampler":0,
					"target":{
						"node":2,
						"path":"rotation"
					}
				}
			],
			"name":"Roll",
			"samplers":[
				{
					"input":11,
					"interpolation":"LINEAR",
					"output":12
				}
			]
		},
		{
			"channels":[
				{
					"sampler":0,
					"target":{
						"node":0,
						"path":"rotation"
					}
				}
			],
			"name":"Roll_1",
			"samplers":[
				{
					"input":13,
					"interpolation":"LINEAR",
					"output":14
				}
			]
		},
		{
			"channels":[
				{
					"sampler":0,
					"target":{
						"node":1,
						"path":"rotation"
					}
				}
			],
			"name":"Roll_2",
			"samplers":[
				{
					"input":13,
					"interpolation":"LINEAR",
					"output":15
				}
			]
		}
	],
	"materials":[
		{
			"doubleSided":true,
			"name":"Material.001",
			"pbrMetallicRoughness":{
				"baseColorTexture":{
					"index":0
				},
				"metallicFactor":0,
				"roughnessFactor":0.5
			}
		},
		{
			"doubleSided":true,
			"name":"Material.002",
			"pbrMetallicRoughness":{
				"baseColorTexture":{
					"index":1
				},
				"metallicFactor":0,
				"roughnessFactor":0.5
			}
		}
	],
	"meshes":[
		{
			"name":"Cylinder.003",
			"primitives":[
				{
					"attributes":{
						"POSITION":0,
						"NORMAL":1,
						"TEXCOORD_0":2
					},
					"indices":3,
					"material":0
				}
			]
		},
		{
			"name":"Cylinder.002",
			"primitives":[
				{
					"attributes":{
						"POSITION":4,
						"NORMAL":5,
						"TEXCOORD_0":6
					},
					"indices":3,
					"material":0
				}
			]
		},
		{
			"name":"Cylinder",
			"primitives":[
				{
					"attributes":{
						"POSITION":7,
						"NORMAL":8,
						"TEXCOORD_0":9
					},
					"indices":10,
					"material":1
				}
			]
		}
	],
	"textures":[
		{
			"sampler":0,
			"source":0
		},
		{
			"sampler":0,
			"source":0
		}
	],
	"images":[
		{
			"mimeType":"image/png",
			"name":"palette",
			"uri":"palette.png"
		}
	],
	"accessors":[
		{
			"bufferView":0,
			"componentType":5126,
			"count":832,
			"max":[
				0.32475176453590393,
				0.00010710954666137695,
				0.32160183787345886
			],
			"min":[
				-0.32384026050567627,
				-0.6738945245742798,
				-0.3269903361797333
			],
			"type":"VEC3"
		},
		{
			"bufferView":1,
			"componentType":5126,
			"count":832,
			"type":"VEC3"
		},
		{
			"bufferView":2,
			"componentType":5126,
			"count":832,
			"type":"VEC2"
		},
		{
			"bufferView":3,
			"componentType":5123,
			"count":1332,
			"type":"SCALAR"
		},
		{
			"bufferView":4,
			"componentType":5126,
			"count":832,
			"max":[
				0.32475176453590393,
				0.00010710954666137695,
				0.32160183787345886
			],
			"min":[
				-0.32384026050567627,
				-0.6738945245742798,
				-0.3269903361797333
			],
			"type":"VEC3"
		},
		{
			"bufferView":5,
			"componentType":5126,
			"count":832,
			"type":"VEC3"
		},
		{
			"bufferView":6,
			"componentType":5126,
			"count":832,
			"type":"VEC2"
		},
		{
			"bufferView":7,
			"componentType":5126,
			"count":1790,
			"max":[
				1,
				7.596200466156006,
				1
			],
			"min":[
				-1,
				-1,
				-1.1890063285827637
			],
			"type":"VEC3"
		},
		{
			"bufferView":8,
			"componentType":5126,
			"count":1790,
			"type":"VEC3"
		},
		{
			"bufferView":9,
			"componentType":5126,
			"count":1790,
			"type":"VEC2"
		},
		{
			"bufferView":10,
			"componentType":5123,
			"count":3132,
			"type":"SCALAR"
		},
		{
			"bufferView":11,
			"componentType":5126,
			"count":57,
			"max":[
				2.3333333333333335
			],
			"min":[
				0
			],
			"type":"SCALAR"
		},
		{
			"bufferView":12,
			"componentType":5126,
			"count":57,
			"type":"VEC4"
		},
		{
			"bufferView":13,
			"componentType":5126,
			"count":55,
			"max":[
				2.2916666666666665
			],
			"min":[
				0.041666666666666664
			],
			"type":"SCALAR"
		},
		{
			"bufferView":14,
			"componentType":5126,
			"count":55,
			"type":"VEC4"
		},
		{
			"bufferView":15,
			"componentType":5126,
			"count":55,
			"type":"VEC4"
		}
	],
	"bufferViews":[
		{
			"buffer":0,
			"byteLength":9984,
			"byteOffset":0,
			"target":34962
		},
		{
			"buffer":0,
			"byteLength":9984,
			"byteOffset":9984,
			"target":34962
		},
		{
			"buffer":0,
			"byteLength":6656,
			"byteOffset":19968,
			"target":34962
		},
		{
			"buffer":0,
			"byteLength":2664,
			"byteOffset":26624,
			"target":34963
		},
		{
			"buffer":0,
			"byteLength":9984,
			"byteOffset":29288,
			"target":34962
		},
		{
			"buffer":0,
			"byteLength":9984,
			"byteOffset":39272,
			"target":34962
		},
		{
			"buffer":0,
			"byteLength":6656,
			"byteOffset":49256,
			"target":34962
		},
		{
			"buffer":0,
			"byteLength":21480,
			"byteOffset":55912,
			"target":34962
		},
		{
			"buffer":0,
			"byteLength":21480,
			"byteOffset":77392,
			"target":34962
		},
		{
			"buffer":0,
			"byteLength":14320,
			"byteOffset":98872,
			"target":34962
		},
		{
			"buffer":0,
			"byteLength":6264,
			"byteOffset":113192,
			"target":34963
		},
		{
			"buffer":0,
			"byteLength":228,
			"byteOffset":119456
		},
		{
			"buffer":0,
			"byteLength":912,
			"byteOffset":119684
		},
		{
			"buffer":0,
			"byteLength":220,
			"byteOffset":120596
		},
		{
			"buffer":0,
			"byteLength":880,
			"byteOffset":120816
		},
		{
			"buffer":0,
			"byteLength":880,
			"byteOffset":121696
		}
	],
	"samplers":[
		{
			"magFilter":9729,
			"minFilter":9987
		}
	],
	"buffers":[
		{
			"byteLength":122576,
			"uri":"sweeper.bin"
		}
	]
}
