{
	"asset":{
		"generator":"Khronos glTF Blender I/O v4.3.47",
		"version":"2.0"
	},
	"scene":0,
	"scenes":[
		{
			"name":"Scene",
			"nodes":[
				0
			]
		}
	],
	"nodes":[
		{
			"mesh":0,
			"name":"Cube",
			"scale":[
				0.09456437826156616,
				3.168257713317871,
				1.386899709701538
			],
			"translation":[
				0,
				3.218001127243042,
				-1.2075965404510498
			]
		}
	],
	"materials":[
		{
			"doubleSided":true,
			"name":"Wood",
			"pbrMetallicRoughness":{
				"baseColorTexture":{
					"index":0
				},
				"metallicFactor":0,
				"roughnessFactor":0.5636363625526428
			}
		},
		{
			"doubleSided":true,
			"name":"Galvanized Square Steel",
			"pbrMetallicRoughness":{
				"baseColorFactor":[
					0.7313299775123596,
					0.7230193614959717,
					0.6984201073646545,
					1
				],
				"metallicFactor":0.7045454382896423,
				"roughnessFactor":0.050000011920928955
			}
		}
	],
	"meshes":[
		{
			"name":"Cube.001",
			"primitives":[
				{
					"attributes":{
						"POSITION":0,
						"NORMAL":1,
						"TEXCOORD_0":2
					},
					"indices":3,
					"material":0
				},
				{
					"attributes":{
						"POSITION":4,
						"NORMAL":5,
						"TEXCOORD_0":6
					},
					"indices":7,
					"material":1
				}
			]
		}
	],
	"textures":[
		{
			"sampler":0,
			"source":0
		}
	],
	"images":[
		{
			"mimeType":"image/png",
			"name":"wood",
			"uri":"wood.png"
		}
	],
	"accessors":[
		{
			"bufferView":0,
			"componentType":5126,
			"count":216,
			"max":[
				0.5800265073776245,
				1,
				1
			],
			"min":[
				-0.5800265073776245,
				-1,
				-1
			],
			"type":"VEC3"
		},
		{
			"bufferView":1,
			"componentType":5126,
			"count":216,
			"type":"VEC3"
		},
		{
			"bufferView":2,
			"componentType":5126,
			"count":216,
			"type":"VEC2"
		},
		{
			"bufferView":3,
			"componentType":5123,
			"count":600,
			"type":"SCALAR"
		},
		{
			"bufferView":4,
			"componentType":5126,
			"count":2568,
			"max":[
				2.3823049068450928,
				0.038567062467336655,
				-0.7044026851654053
			],
			"min":[
				-2.3823049068450928,
				-0.10388068109750748,
				-0.8749995231628418
			],
			"type":"VEC3"
		},
		{
			"bufferView":5,
			"componentType":5126,
			"count":2568,
			"type":"VEC3"
		},
		{
			"bufferView":6,
			"componentType":5126,
			"count":2568,
			"type":"VEC2"
		},
		{
			"bufferView":7,
			"componentType":5123,
			"count":4464,
			"type":"SCALAR"
		}
	],
	"bufferViews":[
		{
			"buffer":0,
			"byteLength":2592,
			"byteOffset":0,
			"target":34962
		},
		{
			"buffer":0,
			"byteLength":2592,
			"byteOffset":2592,
			"target":34962
		},
		{
			"buffer":0,
			"byteLength":1728,
			"byteOffset":5184,
			"target":34962
		},
		{
			"buffer":0,
			"byteLength":1200,
			"byteOffset":6912,
			"target":34963
		},
		{
			"buffer":0,
			"byteLength":30816,
			"byteOffset":8112,
			"target":34962
		},
		{
			"buffer":0,
			"byteLength":30816,
			"byteOffset":38928,
			"target":34962
		},
		{
			"buffer":0,
			"byteLength":20544,
			"byteOffset":69744,
			"target":34962
		},
		{
			"buffer":0,
			"byteLength":8928,
			"byteOffset":90288,
			"target":34963
		}
	],
	"samplers":[
		{
			"magFilter":9729,
			"minFilter":9987
		}
	],
	"buffers":[
		{
			"byteLength":99216,
			"uri":"door.bin"
		}
	]
}
