{
	"asset":{
		"generator":"Khronos glTF Blender I/O v4.3.47",
		"version":"2.0"
	},
	"scene":0,
	"scenes":[
		{
			"name":"Scene",
			"nodes":[
				3
			]
		}
	],
	"nodes":[
		{
			"mesh":0,
			"name":"node_eb020fd7_b393_4ed4_b7e9_31bea3720f2f_mesh0"
		},
		{
			"children":[
				0
			],
			"name":"node_eb020fd7_b393_4ed4_b7e9_31bea3720f2f",
			"rotation":[
				0,
				0,
				0.7071065902709961,
				0.7071069478988647
			],
			"scale":[
				0.4324834942817688,
				0.23124893009662628,
				0.23124894499778748
			],
			"translation":[
				-0.0013095141621306539,
				-0.007380812894552946,
				-0.10673058778047562
			]
		},
		{
			"children":[
				1
			],
			"name":"node_bef3d623_3495_4cd0_a064_fba0c466e2cc"
		},
		{
			"children":[
				2
			],
			"name":"node_7dc4fa25_230a_452b_b719_77c4668aea8a",
			"rotation":[
				0.7071068286895752,
				0,
				0,
				0.7071068286895752
			]
		}
	],
	"materials":[
		{
			"doubleSided":true,
			"name":"mat_0",
			"normalTexture":{
				"index":0
			},
			"pbrMetallicRoughness":{
				"baseColorTexture":{
					"index":1
				},
				"metallicFactor":0,
				"roughnessFactor":0.5
			}
		}
	],
	"meshes":[
		{
			"name":"geometry_a0b973be_9bd6_4f2e_a0a8_2c1cba506ec9",
			"primitives":[
				{
					"attributes":{
						"POSITION":0,
						"NORMAL":1,
						"TEXCOORD_0":2
					},
					"indices":3,
					"material":0
				}
			]
		}
	],
	"textures":[
		{
			"sampler":0,
			"source":0
		},
		{
			"sampler":0,
			"source":1
		}
	],
	"images":[
		{
			"mimeType":"image/png",
			"name":"normal",
			"uri":"normal.png"
		},
		{
			"mimeType":"image/png",
			"name":"diffuse",
			"uri":"diffuse.png"
		}
	],
	"accessors":[
		{
			"bufferView":0,
			"componentType":5126,
			"count":755,
			"max":[
				4.514434337615967,
				1.4998652935028076,
				-0.6957364082336426
			],
			"min":[
				0.6565804481506348,
				-1.4726274013519287,
				-2.220731735229492
			],
			"type":"VEC3"
		},
		{
			"bufferView":1,
			"componentType":5126,
			"count":755,
			"type":"VEC3"
		},
		{
			"bufferView":2,
			"componentType":5126,
			"count":755,
			"type":"VEC2"
		},
		{
			"bufferView":3,
			"componentType":5123,
			"count":1110,
			"type":"SCALAR"
		}
	],
	"bufferViews":[
		{
			"buffer":0,
			"byteLength":9060,
			"byteOffset":0,
			"target":34962
		},
		{
			"buffer":0,
			"byteLength":9060,
			"byteOffset":9060,
			"target":34962
		},
		{
			"buffer":0,
			"byteLength":6040,
			"byteOffset":18120,
			"target":34962
		},
		{
			"buffer":0,
			"byteLength":2220,
			"byteOffset":24160,
			"target":34963
		}
	],
	"samplers":[
		{
			"magFilter":9729,
			"minFilter":9987
		}
	],
	"buffers":[
		{
			"byteLength":26380,
			"uri":"turret_2.bin"
		}
	]
}
