{
	"asset":{
		"generator":"Khronos glTF Blender I/O v4.3.47",
		"version":"2.0"
	},
	"scene":0,
	"scenes":[
		{
			"name":"Scene",
			"nodes":[
				0
			]
		}
	],
	"nodes":[
		{
			"mesh":0,
			"name":"Bishop",
			"translation":[
				0.002330005168914795,
				0.16971898078918457,
				-0.25479423999786377
			]
		}
	],
	"materials":[
		{
			"doubleSided":true,
			"name":"Material.003",
			"pbrMetallicRoughness":{
				"baseColorFactor":[
					0.008661801926791668,
					0.013984443619847298,
					0.6727938652038574,
					1
				],
				"metallicFactor":0.08181819319725037,
				"roughnessFactor":0.5
			}
		}
	],
	"meshes":[
		{
			"name":"Vert.003",
			"primitives":[
				{
					"attributes":{
						"POSITION":0,
						"NORMAL":1
					},
					"indices":2,
					"material":0
				}
			]
		}
	],
	"accessors":[
		{
			"bufferView":0,
			"componentType":5126,
			"count":15424,
			"max":[
				0.2821296751499176,
				1.371631383895874,
				0.2821296751499176
			],
			"min":[
				-0.2821296453475952,
				0,
				-0.2821296751499176
			],
			"type":"VEC3"
		},
		{
			"bufferView":1,
			"componentType":5126,
			"count":15424,
			"type":"VEC3"
		},
		{
			"bufferView":2,
			"componentType":5123,
			"count":92160,
			"type":"SCALAR"
		}
	],
	"bufferViews":[
		{
			"buffer":0,
			"byteLength":185088,
			"byteOffset":0,
			"target":34962
		},
		{
			"buffer":0,
			"byteLength":185088,
			"byteOffset":185088,
			"target":34962
		},
		{
			"buffer":0,
			"byteLength":184320,
			"byteOffset":370176,
			"target":34963
		}
	],
	"buffers":[
		{
			"byteLength":554496,
			"uri":"bishop.bin"
		}
	]
}
