{
	"asset":{
		"generator":"Khronos glTF Blender I/O v4.3.47",
		"version":"2.0"
	},
	"scene":0,
	"scenes":[
		{
			"name":"Scene",
			"nodes":[
				11,
				13
			]
		}
	],
	"nodes":[
		{
			"name":"Bone",
			"translation":[
				-0.027555648237466812,
				1.1690373420715332,
				3.694295358513955e-08
			]
		},
		{
			"name":"Bone.002",
			"rotation":[
				-0.04219917953014374,
				6.340957980910389e-08,
				-6.089826420918598e-09,
				0.9991092085838318
			],
			"translation":[
				3.552713678800501e-15,
				2.101278781890869,
				-1.4901161193847656e-07
			]
		},
		{
			"children":[
				1
			],
			"name":"Bone.001",
			"rotation":[
				-0.4830840229988098,
				0.5163620710372925,
				0.4830840528011322,
				0.5163620114326477
			],
			"scale":[
				1,
				1,
				0.9999998807907104
			],
			"translation":[
				-0.027555648237466812,
				1.1690373420715332,
				3.694295358513955e-08
			]
		},
		{
			"name":"Bone.004",
			"rotation":[
				-0.09278315305709839,
				4.075088710919772e-08,
				1.4859277364109857e-08,
				0.9956863522529602
			],
			"scale":[
				0.9999999403953552,
				1,
				0.9999999403953552
			],
			"translation":[
				-1.7319479184152442e-14,
				2.066359281539917,
				1.4901161193847656e-08
			]
		},
		{
			"children":[
				3
			],
			"name":"Bone.003",
			"rotation":[
				-0.47522810101509094,
				-0.523601233959198,
				-0.47522807121276855,
				0.523601233959198
			],
			"scale":[
				0.9999999403953552,
				0.9999998807907104,
				0.9999998807907104
			],
			"translation":[
				-0.027555648237466812,
				1.1690373420715332,
				3.694295358513955e-08
			]
		},
		{
			"name":"Bone.007",
			"rotation":[
				5.082072007667193e-08,
				4.423064936531773e-08,
				-0.486343652009964,
				0.873767614364624
			],
			"scale":[
				1.0000001192092896,
				1.0000001192092896,
				1.0000001192092896
			],
			"translation":[
				1.1920928244535389e-07,
				1.4096572399139404,
				-7.105427357601002e-15
			]
		},
		{
			"children":[
				5
			],
			"name":"Bone.006",
			"rotation":[
				7.1559660419495685e-09,
				5.993054941200171e-08,
				0.4863436818122864,
				0.873767614364624
			],
			"translation":[
				-2.244300282339459e-23,
				1.8689913749694824,
				-3.171297831812817e-23
			]
		},
		{
			"name":"Bone.009",
			"rotation":[
				2.511677088534725e-08,
				4.690564026077482e-08,
				0.5384708046913147,
				0.8426441550254822
			],
			"translation":[
				-5.960464477539063e-08,
				1.5040448904037476,
				0
			]
		},
		{
			"children":[
				7
			],
			"name":"Bone.008",
			"rotation":[
				2.7423263659898112e-08,
				-5.195591068485328e-09,
				-0.5557195544242859,
				0.8313698172569275
			],
			"translation":[
				-2.244300282339459e-23,
				1.8689913749694824,
				-3.171297831812817e-23
			]
		},
		{
			"children":[
				6,
				8
			],
			"name":"Bone.005",
			"rotation":[
				1,
				0,
				0,
				0
			],
			"translation":[
				-0.027555648237466812,
				1.1690373420715332,
				3.694295358513955e-08
			]
		},
		{
			"name":"neutral_bone",
			"rotation":[
				-0.7071067690849304,
				0,
				0,
				0.7071067690849304
			]
		},
		{
			"children":[
				0,
				2,
				4,
				9,
				10
			],
			"name":"Armature",
			"rotation":[
				0,
				-0.7071068286895752,
				0,
				0.7071068286895752
			],
			"scale":[
				0.4931715726852417,
				0.4931715726852417,
				0.4931715726852417
			],
			"translation":[
				0,
				1.175916314125061,
				0.013589661568403244
			]
		},
		{
			"mesh":0,
			"name":"Cube",
			"skin":0
		},
		{
			"children":[
				12
			],
			"name":"Empty"
		}
	],
	"animations":[
		{
			"channels":[
				{
					"sampler":0,
					"target":{
						"node":0,
						"path":"translation"
					}
				},
				{
					"sampler":1,
					"target":{
						"node":0,
						"path":"rotation"
					}
				},
				{
					"sampler":2,
					"target":{
						"node":0,
						"path":"scale"
					}
				},
				{
					"sampler":3,
					"target":{
						"node":2,
						"path":"translation"
					}
				},
				{
					"sampler":4,
					"target":{
						"node":2,
						"path":"rotation"
					}
				},
				{
					"sampler":5,
					"target":{
						"node":2,
						"path":"scale"
					}
				},
				{
					"sampler":6,
					"target":{
						"node":1,
						"path":"translation"
					}
				},
				{
					"sampler":7,
					"target":{
						"node":1,
						"path":"rotation"
					}
				},
				{
					"sampler":8,
					"target":{
						"node":1,
						"path":"scale"
					}
				},
				{
					"sampler":9,
					"target":{
						"node":4,
						"path":"translation"
					}
				},
				{
					"sampler":10,
					"target":{
						"node":4,
						"path":"rotation"
					}
				},
				{
					"sampler":11,
					"target":{
						"node":4,
						"path":"scale"
					}
				},
				{
					"sampler":12,
					"target":{
						"node":3,
						"path":"translation"
					}
				},
				{
					"sampler":13,
					"target":{
						"node":3,
						"path":"rotation"
					}
				},
				{
					"sampler":14,
					"target":{
						"node":3,
						"path":"scale"
					}
				},
				{
					"sampler":15,
					"target":{
						"node":9,
						"path":"translation"
					}
				},
				{
					"sampler":16,
					"target":{
						"node":9,
						"path":"rotation"
					}
				},
				{
					"sampler":17,
					"target":{
						"node":9,
						"path":"scale"
					}
				},
				{
					"sampler":18,
					"target":{
						"node":6,
						"path":"translation"
					}
				},
				{
					"sampler":19,
					"target":{
						"node":6,
						"path":"rotation"
					}
				},
				{
					"sampler":20,
					"target":{
						"node":6,
						"path":"scale"
					}
				},
				{
					"sampler":21,
					"target":{
						"node":5,
						"path":"translation"
					}
				},
				{
					"sampler":22,
					"target":{
						"node":5,
						"path":"rotation"
					}
				},
				{
					"sampler":23,
					"target":{
						"node":5,
						"path":"scale"
					}
				},
				{
					"sampler":24,
					"target":{
						"node":8,
						"path":"translation"
					}
				},
				{
					"sampler":25,
					"target":{
						"node":8,
						"path":"rotation"
					}
				},
				{
					"sampler":26,
					"target":{
						"node":8,
						"path":"scale"
					}
				},
				{
					"sampler":27,
					"target":{
						"node":7,
						"path":"translation"
					}
				},
				{
					"sampler":28,
					"target":{
						"node":7,
						"path":"rotation"
					}
				},
				{
					"sampler":29,
					"target":{
						"node":7,
						"path":"scale"
					}
				}
			],
			"name":"Walk",
			"samplers":[
				{
					"input":13,
					"interpolation":"STEP",
					"output":14
				},
				{
					"input":13,
					"interpolation":"STEP",
					"output":15
				},
				{
					"input":13,
					"interpolation":"STEP",
					"output":16
				},
				{
					"input":13,
					"interpolation":"STEP",
					"output":17
				},
				{
					"input":13,
					"interpolation":"STEP",
					"output":18
				},
				{
					"input":13,
					"interpolation":"STEP",
					"output":19
				},
				{
					"input":13,
					"interpolation":"STEP",
					"output":20
				},
				{
					"input":21,
					"interpolation":"LINEAR",
					"output":22
				},
				{
					"input":13,
					"interpolation":"STEP",
					"output":23
				},
				{
					"input":13,
					"interpolation":"STEP",
					"output":24
				},
				{
					"input":13,
					"interpolation":"STEP",
					"output":25
				},
				{
					"input":13,
					"interpolation":"STEP",
					"output":26
				},
				{
					"input":13,
					"interpolation":"STEP",
					"output":27
				},
				{
					"input":21,
					"interpolation":"LINEAR",
					"output":28
				},
				{
					"input":13,
					"interpolation":"STEP",
					"output":29
				},
				{
					"input":13,
					"interpolation":"STEP",
					"output":30
				},
				{
					"input":13,
					"interpolation":"STEP",
					"output":31
				},
				{
					"input":13,
					"interpolation":"STEP",
					"output":32
				},
				{
					"input":13,
					"interpolation":"STEP",
					"output":33
				},
				{
					"input":21,
					"interpolation":"LINEAR",
					"output":34
				},
				{
					"input":13,
					"interpolation":"STEP",
					"output":35
				},
				{
					"input":13,
					"interpolation":"STEP",
					"output":36
				},
				{
					"input":21,
					"interpolation":"LINEAR",
					"output":37
				},
				{
					"input":13,
					"interpolation":"STEP",
					"output":38
				},
				{
					"input":13,
					"interpolation":"STEP",
					"output":39
				},
				{
					"input":21,
					"interpolation":"LINEAR",
					"output":40
				},
				{
					"input":13,
					"interpolation":"STEP",
					"output":41
				},
				{
					"input":13,
					"interpolation":"STEP",
					"output":42
				},
				{
					"input":21,
					"interpolation":"LINEAR",
					"output":43
				},
				{
					"input":13,
					"interpolation":"STEP",
					"output":44
				}
			]
		}
	],
	"materials":[
		{
			"doubleSided":true,
			"name":"Material.001",
			"pbrMetallicRoughness":{
				"baseColorTexture":{
					"index":0
				},
				"metallicFactor":0,
				"roughnessFactor":0.5
			}
		},
		{
			"doubleSided":true,
			"name":"Material.002",
			"pbrMetallicRoughness":{
				"baseColorTexture":{
					"index":1
				},
				"metallicFactor":0,
				"roughnessFactor":0.5
			}
		}
	],
	"meshes":[
		{
			"name":"Cube.001",
			"primitives":[
				{
					"attributes":{
						"POSITION":0,
						"NORMAL":1,
						"TEXCOORD_0":2,
						"JOINTS_0":3,
						"WEIGHTS_0":4
					},
					"indices":5,
					"material":0
				},
				{
					"attributes":{
						"POSITION":6,
						"NORMAL":7,
						"TEXCOORD_0":8,
						"JOINTS_0":9,
						"WEIGHTS_0":10
					},
					"indices":11,
					"material":1
				}
			]
		}
	],
	"textures":[
		{
			"sampler":0,
			"source":0
		},
		{
			"sampler":0,
			"source":0
		}
	],
	"images":[
		{
			"mimeType":"image/png",
			"name":"palette",
			"uri":"palette.png"
		}
	],
	"skins":[
		{
			"inverseBindMatrices":12,
			"joints":[
				0,
				2,
				1,
				4,
				3,
				9,
				6,
				5,
				8,
				7,
				10
			],
			"name":"Armature"
		}
	],
	"accessors":[
		{
			"bufferView":0,
			"componentType":5126,
			"count":916,
			"max":[
				0.8021113872528076,
				2.363795518875122,
				2.425604820251465
			],
			"min":[
				-0.9163954854011536,
				-0.9644461274147034,
				-2.425605058670044
			],
			"type":"VEC3"
		},
		{
			"bufferView":1,
			"componentType":5126,
			"count":916,
			"type":"VEC3"
		},
		{
			"bufferView":2,
			"componentType":5126,
			"count":916,
			"type":"VEC2"
		},
		{
			"bufferView":3,
			"componentType":5121,
			"count":916,
			"type":"VEC4"
		},
		{
			"bufferView":4,
			"componentType":5126,
			"count":916,
			"type":"VEC4"
		},
		{
			"bufferView":5,
			"componentType":5123,
			"count":1584,
			"type":"SCALAR"
		},
		{
			"bufferView":6,
			"componentType":5126,
			"count":2674,
			"max":[
				1.000000238418579,
				4.560755729675293,
				0.9999999403953552
			],
			"min":[
				-0.9999995827674866,
				2.413468599319458,
				-0.9999993443489075
			],
			"type":"VEC3"
		},
		{
			"bufferView":7,
			"componentType":5126,
			"count":2674,
			"type":"VEC3"
		},
		{
			"bufferView":8,
			"componentType":5126,
			"count":2674,
			"type":"VEC2"
		},
		{
			"bufferView":9,
			"componentType":5121,
			"count":2674,
			"type":"VEC4"
		},
		{
			"bufferView":10,
			"componentType":5126,
			"count":2674,
			"type":"VEC4"
		},
		{
			"bufferView":11,
			"componentType":5123,
			"count":4056,
			"type":"SCALAR"
		},
		{
			"bufferView":12,
			"componentType":5126,
			"count":11,
			"type":"MAT4"
		},
		{
			"bufferView":13,
			"componentType":5126,
			"count":2,
			"max":[
				3.4166666666666665
			],
			"min":[
				0.041666666666666664
			],
			"type":"SCALAR"
		},
		{
			"bufferView":14,
			"componentType":5126,
			"count":2,
			"type":"VEC3"
		},
		{
			"bufferView":15,
			"componentType":5126,
			"count":2,
			"type":"VEC4"
		},
		{
			"bufferView":16,
			"componentType":5126,
			"count":2,
			"type":"VEC3"
		},
		{
			"bufferView":17,
			"componentType":5126,
			"count":2,
			"type":"VEC3"
		},
		{
			"bufferView":18,
			"componentType":5126,
			"count":2,
			"type":"VEC4"
		},
		{
			"bufferView":19,
			"componentType":5126,
			"count":2,
			"type":"VEC3"
		},
		{
			"bufferView":20,
			"componentType":5126,
			"count":2,
			"type":"VEC3"
		},
		{
			"bufferView":21,
			"componentType":5126,
			"count":82,
			"max":[
				3.4166666666666665
			],
			"min":[
				0.041666666666666664
			],
			"type":"SCALAR"
		},
		{
			"bufferView":22,
			"componentType":5126,
			"count":82,
			"type":"VEC4"
		},
		{
			"bufferView":23,
			"componentType":5126,
			"count":2,
			"type":"VEC3"
		},
		{
			"bufferView":24,
			"componentType":5126,
			"count":2,
			"type":"VEC3"
		},
		{
			"bufferView":25,
			"componentType":5126,
			"count":2,
			"type":"VEC4"
		},
		{
			"bufferView":26,
			"componentType":5126,
			"count":2,
			"type":"VEC3"
		},
		{
			"bufferView":27,
			"componentType":5126,
			"count":2,
			"type":"VEC3"
		},
		{
			"bufferView":28,
			"componentType":5126,
			"count":82,
			"type":"VEC4"
		},
		{
			"bufferView":29,
			"componentType":5126,
			"count":2,
			"type":"VEC3"
		},
		{
			"bufferView":30,
			"componentType":5126,
			"count":2,
			"type":"VEC3"
		},
		{
			"bufferView":31,
			"componentType":5126,
			"count":2,
			"type":"VEC4"
		},
		{
			"bufferView":32,
			"componentType":5126,
			"count":2,
			"type":"VEC3"
		},
		{
			"bufferView":33,
			"componentType":5126,
			"count":2,
			"type":"VEC3"
		},
		{
			"bufferView":34,
			"componentType":5126,
			"count":82,
			"type":"VEC4"
		},
		{
			"bufferView":35,
			"componentType":5126,
			"count":2,
			"type":"VEC3"
		},
		{
			"bufferView":36,
			"componentType":5126,
			"count":2,
			"type":"VEC3"
		},
		{
			"bufferView":37,
			"componentType":5126,
			"count":82,
			"type":"VEC4"
		},
		{
			"bufferView":38,
			"componentType":5126,
			"count":2,
			"type":"VEC3"
		},
		{
			"bufferView":39,
			"componentType":5126,
			"count":2,
			"type":"VEC3"
		},
		{
			"bufferView":40,
			"componentType":5126,
			"count":82,
			"type":"VEC4"
		},
		{
			"bufferView":41,
			"componentType":5126,
			"count":2,
			"type":"VEC3"
		},
		{
			"bufferView":42,
			"componentType":5126,
			"count":2,
			"type":"VEC3"
		},
		{
			"bufferView":43,
			"componentType":5126,
			"count":82,
			"type":"VEC4"
		},
		{
			"bufferView":44,
			"componentType":5126,
			"count":2,
			"type":"VEC3"
		}
	],
	"bufferViews":[
		{
			"buffer":0,
			"byteLength":10992,
			"byteOffset":0,
			"target":34962
		},
		{
			"buffer":0,
			"byteLength":10992,
			"byteOffset":10992,
			"target":34962
		},
		{
			"buffer":0,
			"byteLength":7328,
			"byteOffset":21984,
			"target":34962
		},
		{
			"buffer":0,
			"byteLength":3664,
			"byteOffset":29312,
			"target":34962
		},
		{
			"buffer":0,
			"byteLength":14656,
			"byteOffset":32976,
			"target":34962
		},
		{
			"buffer":0,
			"byteLength":3168,
			"byteOffset":47632,
			"target":34963
		},
		{
			"buffer":0,
			"byteLength":32088,
			"byteOffset":50800,
			"target":34962
		},
		{
			"buffer":0,
			"byteLength":32088,
			"byteOffset":82888,
			"target":34962
		},
		{
			"buffer":0,
			"byteLength":21392,
			"byteOffset":114976,
			"target":34962
		},
		{
			"buffer":0,
			"byteLength":10696,
			"byteOffset":136368,
			"target":34962
		},
		{
			"buffer":0,
			"byteLength":42784,
			"byteOffset":147064,
			"target":34962
		},
		{
			"buffer":0,
			"byteLength":8112,
			"byteOffset":189848,
			"target":34963
		},
		{
			"buffer":0,
			"byteLength":704,
			"byteOffset":197960
		},
		{
			"buffer":0,
			"byteLength":8,
			"byteOffset":198664
		},
		{
			"buffer":0,
			"byteLength":24,
			"byteOffset":198672
		},
		{
			"buffer":0,
			"byteLength":32,
			"byteOffset":198696
		},
		{
			"buffer":0,
			"byteLength":24,
			"byteOffset":198728
		},
		{
			"buffer":0,
			"byteLength":24,
			"byteOffset":198752
		},
		{
			"buffer":0,
			"byteLength":32,
			"byteOffset":198776
		},
		{
			"buffer":0,
			"byteLength":24,
			"byteOffset":198808
		},
		{
			"buffer":0,
			"byteLength":24,
			"byteOffset":198832
		},
		{
			"buffer":0,
			"byteLength":328,
			"byteOffset":198856
		},
		{
			"buffer":0,
			"byteLength":1312,
			"byteOffset":199184
		},
		{
			"buffer":0,
			"byteLength":24,
			"byteOffset":200496
		},
		{
			"buffer":0,
			"byteLength":24,
			"byteOffset":200520
		},
		{
			"buffer":0,
			"byteLength":32,
			"byteOffset":200544
		},
		{
			"buffer":0,
			"byteLength":24,
			"byteOffset":200576
		},
		{
			"buffer":0,
			"byteLength":24,
			"byteOffset":200600
		},
		{
			"buffer":0,
			"byteLength":1312,
			"byteOffset":200624
		},
		{
			"buffer":0,
			"byteLength":24,
			"byteOffset":201936
		},
		{
			"buffer":0,
			"byteLength":24,
			"byteOffset":201960
		},
		{
			"buffer":0,
			"byteLength":32,
			"byteOffset":201984
		},
		{
			"buffer":0,
			"byteLength":24,
			"byteOffset":202016
		},
		{
			"buffer":0,
			"byteLength":24,
			"byteOffset":202040
		},
		{
			"buffer":0,
			"byteLength":1312,
			"byteOffset":202064
		},
		{
			"buffer":0,
			"byteLength":24,
			"byteOffset":203376
		},
		{
			"buffer":0,
			"byteLength":24,
			"byteOffset":203400
		},
		{
			"buffer":0,
			"byteLength":1312,
			"byteOffset":203424
		},
		{
			"buffer":0,
			"byteLength":24,
			"byteOffset":204736
		},
		{
			"buffer":0,
			"byteLength":24,
			"byteOffset":204760
		},
		{
			"buffer":0,
			"byteLength":1312,
			"byteOffset":204784
		},
		{
			"buffer":0,
			"byteLength":24,
			"byteOffset":206096
		},
		{
			"buffer":0,
			"byteLength":24,
			"byteOffset":206120
		},
		{
			"buffer":0,
			"byteLength":1312,
			"byteOffset":206144
		},
		{
			"buffer":0,
			"byteLength":24,
			"byteOffset":207456
		}
	],
	"samplers":[
		{
			"magFilter":9729,
			"minFilter":9987
		}
	],
	"buffers":[
		{
			"byteLength":207480,
			"uri":"doraemon.bin"
		}
	]
}
